<svg width="263" height="113" viewBox="0 0 263 113" fill="none" xmlns="http://www.w3.org/2000/svg">
<path d="M40.1484 75.0117C40.1484 81.8789 38.5195 87.2109 35.2617 91.0078C32.0273 94.8047 27.5273 96.7031 21.7617 96.7031C16.0195 96.7031 11.5078 94.8281 8.22656 91.0781C4.94531 87.3047 3.28125 82.0312 3.23438 75.2578V66.5039C3.23438 59.4727 4.86328 53.9883 8.12109 50.0508C11.3789 46.0898 15.9023 44.1094 21.6914 44.1094C27.3867 44.1094 31.875 46.0547 35.1562 49.9453C38.4375 53.8125 40.1016 59.25 40.1484 66.2578V75.0117ZM29.7773 66.4336C29.7773 61.8164 29.1211 58.3828 27.8086 56.1328C26.4961 53.8828 24.457 52.7578 21.6914 52.7578C18.9492 52.7578 16.9219 53.8477 15.6094 56.0273C14.2969 58.1836 13.6172 61.4766 13.5703 65.9062V75.0117C13.5703 79.4883 14.2383 82.793 15.5742 84.9258C16.9102 87.0352 18.9727 88.0898 21.7617 88.0898C24.457 88.0898 26.4609 87.0586 27.7734 84.9961C29.0859 82.9102 29.7539 79.6875 29.7773 75.3281V66.4336Z" fill="white"/>
<path d="M35.2617 91.0078L34.8823 90.6822L34.8811 90.6836L35.2617 91.0078ZM8.22656 91.0781L7.84926 91.4062L7.85027 91.4074L8.22656 91.0781ZM3.23438 75.2578H2.73436L2.73439 75.2613L3.23438 75.2578ZM8.12109 50.0508L8.50633 50.3695L8.50726 50.3684L8.12109 50.0508ZM35.1562 49.9453L34.774 50.2677L34.775 50.2688L35.1562 49.9453ZM40.1484 66.2578H40.6484L40.6484 66.2545L40.1484 66.2578ZM15.6094 56.0273L16.0365 56.2873L16.0377 56.2853L15.6094 56.0273ZM13.5703 65.9062L13.0703 65.901V65.9062H13.5703ZM15.5742 84.9258L15.1505 85.1912L15.1518 85.1933L15.5742 84.9258ZM27.7734 84.9961L28.1953 85.2645L28.1966 85.2624L27.7734 84.9961ZM29.7773 75.3281L30.2773 75.3308V75.3281H29.7773ZM39.6484 75.0117C39.6484 81.804 38.0375 87.0049 34.8823 90.6822L35.6412 91.3334C39.0015 87.417 40.6484 81.9538 40.6484 75.0117H39.6484ZM34.8811 90.6836C31.757 94.3509 27.4062 96.2031 21.7617 96.2031V97.2031C27.6484 97.2031 32.2976 95.2584 35.6423 91.332L34.8811 90.6836ZM21.7617 96.2031C16.1394 96.2031 11.7742 94.3733 8.60285 90.7489L7.85027 91.4074C11.2414 95.283 15.8997 97.2031 21.7617 97.2031V96.2031ZM8.60387 90.75C5.42495 87.0943 3.78071 81.9509 3.73436 75.2544L2.73439 75.2613C2.78179 82.1116 4.46567 87.5151 7.84926 91.4062L8.60387 90.75ZM3.73438 75.2578V66.5039H2.73438V75.2578H3.73438ZM3.73438 66.5039C3.73438 59.5455 5.34635 54.1888 8.50633 50.3695L7.73586 49.732C4.38021 53.7878 2.73438 59.3998 2.73438 66.5039H3.73438ZM8.50726 50.3684C11.6571 46.5387 16.0302 44.6094 21.6914 44.6094V43.6094C15.7745 43.6094 11.1007 45.641 7.73493 49.7332L8.50726 50.3684ZM21.6914 44.6094C27.2591 44.6094 31.5998 46.5039 34.774 50.2677L35.5385 49.623C32.1502 45.6054 27.5144 43.6094 21.6914 43.6094V44.6094ZM34.775 50.2688C37.9558 54.0176 39.6021 59.3261 39.6484 66.2612L40.6484 66.2545C40.6011 59.1739 38.9192 53.6074 35.5375 49.6218L34.775 50.2688ZM39.6484 66.2578V75.0117H40.6484V66.2578H39.6484ZM30.2773 66.4336C30.2773 61.787 29.6201 58.2459 28.2405 55.8809L27.3767 56.3847C28.6221 58.5197 29.2773 61.8458 29.2773 66.4336H30.2773ZM28.2405 55.8809C26.8318 53.466 24.6214 52.2578 21.6914 52.2578V53.2578C24.2926 53.2578 26.1604 54.2996 27.3767 56.3847L28.2405 55.8809ZM21.6914 52.2578C18.7904 52.2578 16.5922 53.4259 15.181 55.7694L16.0377 56.2853C17.2516 54.2694 19.1081 53.2578 21.6914 53.2578V52.2578ZM15.1823 55.7674C13.7997 58.0387 13.1175 61.4404 13.0703 65.901L14.0703 65.9115C14.1168 61.5128 14.794 58.3285 16.0365 56.2873L15.1823 55.7674ZM13.0703 65.9062V75.0117H14.0703V65.9062H13.0703ZM13.0703 75.0117C13.0703 79.5187 13.7393 82.9382 15.1505 85.1912L15.998 84.6604C14.7373 82.6477 14.0703 79.4579 14.0703 75.0117H13.0703ZM15.1518 85.1933C16.5915 87.4664 18.8251 88.5898 21.7617 88.5898V87.5898C19.1202 87.5898 17.2289 86.6039 15.9966 84.6583L15.1518 85.1933ZM21.7617 88.5898C24.6071 88.5898 26.7803 87.488 28.1953 85.2645L27.3516 84.7277C26.1415 86.6292 24.3069 87.5898 21.7617 87.5898V88.5898ZM28.1966 85.2624C29.584 83.0575 30.2537 79.7211 30.2773 75.3308L29.2774 75.3254C29.2541 79.6539 28.5879 82.7628 27.3502 84.7298L28.1966 85.2624ZM30.2773 75.3281V66.4336H29.2773V75.3281H30.2773Z" fill="black"/>
<path d="M26.1133 67V15.8125H39.6484C45.625 15.8125 50.3828 17.7109 53.9219 21.5078C57.4844 25.3047 59.3008 30.5078 59.3711 37.1172V45.4141C59.3711 52.1406 57.5898 57.4258 54.0273 61.2695C50.4883 65.0898 45.6016 67 39.3672 67H26.1133ZM36.4492 24.4258V58.4219H39.543C42.9883 58.4219 45.4141 57.5195 46.8203 55.7148C48.2266 53.8867 48.9648 50.7461 49.0352 46.293V37.3984C49.0352 32.6172 48.3672 29.2891 47.0312 27.4141C45.6953 25.5156 43.4219 24.5195 40.2109 24.4258H36.4492Z" fill="white"/>
<path d="M26.1133 67H25.6133V67.5H26.1133V67ZM26.1133 15.8125V15.3125H25.6133V15.8125H26.1133ZM53.9219 21.5078L53.5561 21.8487L53.5572 21.8499L53.9219 21.5078ZM59.3711 37.1172H59.8711L59.8711 37.1119L59.3711 37.1172ZM54.0273 61.2695L53.6606 60.9296L53.6605 60.9297L54.0273 61.2695ZM36.4492 24.4258V23.9258H35.9492V24.4258H36.4492ZM36.4492 58.4219H35.9492V58.9219H36.4492V58.4219ZM46.8203 55.7148L47.2147 56.0222L47.2166 56.0197L46.8203 55.7148ZM49.0352 46.293L49.5352 46.3009V46.293H49.0352ZM47.0312 27.4141L46.6223 27.7018L46.624 27.7042L47.0312 27.4141ZM40.2109 24.4258L40.2255 23.926L40.2182 23.9258H40.2109V24.4258ZM26.6133 67V15.8125H25.6133V67H26.6133ZM26.1133 16.3125H39.6484V15.3125H26.1133V16.3125ZM39.6484 16.3125C45.5093 16.3125 50.1263 18.169 53.5561 21.8487L54.2876 21.1669C50.6394 17.2529 45.7407 15.3125 39.6484 15.3125V16.3125ZM53.5572 21.8499C57.0128 25.5328 58.8018 30.6034 58.8711 37.1225L59.8711 37.1119C59.7998 30.4123 57.956 25.0766 54.2865 21.1657L53.5572 21.8499ZM58.8711 37.1172V45.4141H59.8711V37.1172H58.8711ZM58.8711 45.4141C58.8711 52.0516 57.1152 57.2023 53.6606 60.9296L54.3941 61.6094C58.0644 57.6493 59.8711 52.2297 59.8711 45.4141H58.8711ZM53.6605 60.9297C50.2346 64.6279 45.4921 66.5 39.3672 66.5V67.5C45.711 67.5 50.742 65.5517 54.3941 61.6093L53.6605 60.9297ZM39.3672 66.5H26.1133V67.5H39.3672V66.5ZM35.9492 24.4258V58.4219H36.9492V24.4258H35.9492ZM36.4492 58.9219H39.543V57.9219H36.4492V58.9219ZM39.543 58.9219C43.0623 58.9219 45.6735 58.0001 47.2147 56.0222L46.4259 55.4075C45.1547 57.039 42.9143 57.9219 39.543 57.9219V58.9219ZM47.2166 56.0197C48.7262 54.0573 49.4644 50.7764 49.5351 46.3009L48.5352 46.2851C48.4653 50.7158 47.7269 53.7162 46.424 55.41L47.2166 56.0197ZM49.5352 46.293V37.3984H48.5352V46.293H49.5352ZM49.5352 37.3984C49.5352 32.6046 48.872 29.136 47.4385 27.1239L46.624 27.7042C47.8623 29.4421 48.5352 32.6298 48.5352 37.3984H49.5352ZM47.4402 27.1263C45.9818 25.054 43.5293 24.0225 40.2255 23.926L40.1963 24.9256C43.3145 25.0166 45.4088 25.9773 46.6223 27.7018L47.4402 27.1263ZM40.2109 23.9258H36.4492V24.9258H40.2109V23.9258Z" fill="black"/>
<path d="M68.7344 82.5703C68.7344 80.4844 68.1953 78.9141 67.1172 77.8594C66.0625 76.7812 64.1289 75.668 61.3164 74.5195C56.1836 72.5742 52.4922 70.3008 50.2422 67.6992C47.9922 65.0742 46.8672 61.9805 46.8672 58.418C46.8672 54.1055 48.3906 50.6484 51.4375 48.0469C54.5078 45.4219 58.3984 44.1094 63.1094 44.1094C66.25 44.1094 69.0508 44.7773 71.5117 46.1133C73.9727 47.4258 75.8594 49.2891 77.1719 51.7031C78.5078 54.1172 79.1758 56.8594 79.1758 59.9297H68.875C68.875 57.5391 68.3594 55.7227 67.3281 54.4805C66.3203 53.2148 64.8555 52.582 62.9336 52.582C61.1289 52.582 59.7227 53.1211 58.7148 54.1992C57.707 55.2539 57.2031 56.6836 57.2031 58.4883C57.2031 59.8945 57.7656 61.1719 58.8906 62.3203C60.0156 63.4453 62.0078 64.6172 64.8672 65.8359C69.8594 67.6406 73.4805 69.8555 75.7305 72.4805C78.0039 75.1055 79.1406 78.4453 79.1406 82.5C79.1406 86.9531 77.7227 90.4336 74.8867 92.9414C72.0508 95.4492 68.1953 96.7031 63.3203 96.7031C60.0156 96.7031 57.0039 96.0234 54.2852 94.6641C51.5664 93.3047 49.4336 91.3594 47.8867 88.8281C46.3633 86.2969 45.6016 83.3086 45.6016 79.8633H55.9727C55.9727 82.8164 56.5469 84.9609 57.6953 86.2969C58.8438 87.6328 60.7188 88.3008 63.3203 88.3008C66.9297 88.3008 68.7344 86.3906 68.7344 82.5703Z" fill="white"/>
<path d="M67.1172 77.8594L66.7597 78.2091L66.7675 78.2168L67.1172 77.8594ZM61.3164 74.5195L61.5055 74.0565L61.4936 74.052L61.3164 74.5195ZM50.2422 67.6992L49.8626 68.0246L49.864 68.0263L50.2422 67.6992ZM51.4375 48.0469L51.7622 48.4271L51.7624 48.4269L51.4375 48.0469ZM71.5117 46.1133L71.2732 46.5527L71.2764 46.5545L71.5117 46.1133ZM77.1719 51.7031L76.7326 51.942L76.7344 51.9452L77.1719 51.7031ZM79.1758 59.9297V60.4297H79.6758V59.9297H79.1758ZM68.875 59.9297H68.375V60.4297H68.875V59.9297ZM67.3281 54.4805L66.9369 54.792L66.9434 54.7998L67.3281 54.4805ZM58.7148 54.1992L59.0764 54.5447L59.0801 54.5407L58.7148 54.1992ZM58.8906 62.3203L58.5334 62.6702L58.5371 62.6739L58.8906 62.3203ZM64.8672 65.8359L64.6711 66.2959L64.684 66.3014L64.6972 66.3062L64.8672 65.8359ZM75.7305 72.4805L75.3508 72.8059L75.3525 72.8078L75.7305 72.4805ZM47.8867 88.8281L47.4583 89.086L47.4601 89.0888L47.8867 88.8281ZM45.6016 79.8633V79.3633H45.1016V79.8633H45.6016ZM55.9727 79.8633H56.4727V79.3633H55.9727V79.8633ZM69.2344 82.5703C69.2344 80.4026 68.6732 78.6821 67.4668 77.502L66.7675 78.2168C67.7174 79.146 68.2344 80.5662 68.2344 82.5703H69.2344ZM67.4746 77.5097C66.3446 76.3546 64.33 75.21 61.5054 74.0566L61.1274 74.9824C63.9278 76.1259 65.7804 77.2079 66.7598 78.209L67.4746 77.5097ZM61.4936 74.052C56.3969 72.1203 52.793 69.8842 50.6204 67.3721L49.864 68.0263C52.1914 70.7173 55.9703 73.0281 61.1392 74.9871L61.4936 74.052ZM50.6218 67.3738C48.452 64.8424 47.3672 61.8651 47.3672 58.418H46.3672C46.3672 62.0959 47.5323 65.306 49.8626 68.0246L50.6218 67.3738ZM47.3672 58.418C47.3672 54.2391 48.8358 50.9258 51.7622 48.4271L51.1128 47.6666C47.9454 50.3711 46.3672 53.9719 46.3672 58.418H47.3672ZM51.7624 48.4269C54.7275 45.8919 58.4967 44.6094 63.1094 44.6094V43.6094C58.3002 43.6094 54.2882 44.9518 51.1126 47.6668L51.7624 48.4269ZM63.1094 44.6094C66.177 44.6094 68.894 45.2612 71.2732 46.5527L71.7503 45.6739C69.2076 44.2935 66.323 43.6094 63.1094 43.6094V44.6094ZM71.2764 46.5545C73.6524 47.8217 75.4676 49.6152 76.7326 51.942L77.6111 51.4643C76.2512 48.9629 74.2929 47.0299 71.747 45.6721L71.2764 46.5545ZM76.7344 51.9452C78.0249 54.2771 78.6758 56.9343 78.6758 59.9297H79.6758C79.6758 56.7844 78.9908 53.9573 77.6094 51.461L76.7344 51.9452ZM79.1758 59.4297H68.875V60.4297H79.1758V59.4297ZM69.375 59.9297C69.375 57.4767 68.8471 55.5274 67.7128 54.1611L66.9434 54.7998C67.8716 55.9179 68.375 57.6015 68.375 59.9297H69.375ZM67.7193 54.169C66.5983 52.7613 64.9758 52.082 62.9336 52.082V53.082C64.7351 53.082 66.0423 53.6684 66.937 54.7919L67.7193 54.169ZM62.9336 52.082C61.0236 52.082 59.4724 52.6566 58.3496 53.8578L59.0801 54.5407C59.9729 53.5856 61.2342 53.082 62.9336 53.082V52.082ZM58.3533 53.8538C57.2367 55.0224 56.7031 56.587 56.7031 58.4883H57.7031C57.7031 56.7802 58.1774 55.4854 59.0763 54.5446L58.3533 53.8538ZM56.7031 58.4883C56.7031 60.0443 57.3311 61.4428 58.5334 62.6702L59.2478 61.9704C58.2002 60.9009 57.7031 59.7447 57.7031 58.4883H56.7031ZM58.5371 62.6739C59.7324 63.8692 61.7982 65.0714 64.6711 66.2959L65.0632 65.376C62.2174 64.163 60.2988 63.0214 59.2442 61.9668L58.5371 62.6739ZM64.6972 66.3062C69.648 68.0959 73.1793 70.2724 75.3508 72.8059L76.1101 72.1551C73.7816 69.4385 70.0708 67.1854 65.0372 65.3657L64.6972 66.3062ZM75.3525 72.8078C77.5343 75.327 78.6406 78.5443 78.6406 82.5H79.6406C79.6406 78.3464 78.4735 74.8839 76.1084 72.1531L75.3525 72.8078ZM78.6406 82.5C78.6406 86.8376 77.2649 90.1709 74.5555 92.5668L75.2179 93.316C78.1804 90.6963 79.6406 87.0686 79.6406 82.5H78.6406ZM74.5555 92.5668C71.8348 94.9728 68.1093 96.2031 63.3203 96.2031V97.2031C68.2813 97.2031 72.2668 95.9257 75.2179 93.316L74.5555 92.5668ZM63.3203 96.2031C60.0864 96.2031 57.1522 95.5386 54.5088 94.2169L54.0615 95.1113C56.8556 96.5083 59.9449 97.2031 63.3203 97.2031V96.2031ZM54.5088 94.2169C51.8716 92.8983 49.8101 91.0166 48.3134 88.5674L47.4601 89.0888C49.0571 91.7021 51.2612 93.7111 54.0615 95.1113L54.5088 94.2169ZM48.3151 88.5703C46.8458 86.129 46.1016 83.233 46.1016 79.8633H45.1016C45.1016 83.3841 45.8807 86.4647 47.4583 89.086L48.3151 88.5703ZM45.6016 80.3633H55.9727V79.3633H45.6016V80.3633ZM55.4727 79.8633C55.4727 82.8613 56.052 85.1522 57.3162 86.6228L58.0745 85.9709C57.0418 84.7696 56.4727 82.7715 56.4727 79.8633H55.4727ZM57.3162 86.6228C58.5976 88.1135 60.6438 88.8008 63.3203 88.8008V87.8008C60.7937 87.8008 59.0899 87.1521 58.0745 85.9709L57.3162 86.6228ZM63.3203 88.8008C65.2096 88.8008 66.7164 88.2995 67.7443 87.2115C68.7671 86.1289 69.2344 84.5507 69.2344 82.5703H68.2344C68.2344 84.4103 67.7993 85.6973 67.0174 86.5248C66.2406 87.347 65.0404 87.8008 63.3203 87.8008V88.8008Z" fill="black"/>
<path d="M68.7344 82.5703C68.7344 80.4844 68.1953 78.9141 67.1172 77.8594C66.0625 76.7812 64.1289 75.668 61.3164 74.5195C56.1836 72.5742 52.4922 70.3008 50.2422 67.6992C47.9922 65.0742 46.8672 61.9805 46.8672 58.418C46.8672 54.1055 48.3906 50.6484 51.4375 48.0469C54.5078 45.4219 58.3984 44.1094 63.1094 44.1094C66.25 44.1094 69.0508 44.7773 71.5117 46.1133C73.9727 47.4258 75.8594 49.2891 77.1719 51.7031C78.5078 54.1172 79.1758 56.8594 79.1758 59.9297H68.875C68.875 57.5391 68.3594 55.7227 67.3281 54.4805C66.3203 53.2148 64.8555 52.582 62.9336 52.582C61.1289 52.582 59.7227 53.1211 58.7148 54.1992C57.707 55.2539 57.2031 56.6836 57.2031 58.4883C57.2031 59.8945 57.7656 61.1719 58.8906 62.3203C60.0156 63.4453 62.0078 64.6172 64.8672 65.8359C69.8594 67.6406 73.4805 69.8555 75.7305 72.4805C78.0039 75.1055 79.1406 78.4453 79.1406 82.5C79.1406 86.9531 77.7227 90.4336 74.8867 92.9414C72.0508 95.4492 68.1953 96.7031 63.3203 96.7031C60.0156 96.7031 57.0039 96.0234 54.2852 94.6641C51.5664 93.3047 49.4336 91.3594 47.8867 88.8281C46.3633 86.2969 45.6016 83.3086 45.6016 79.8633H55.9727C55.9727 82.8164 56.5469 84.9609 57.6953 86.2969C58.8438 87.6328 60.7188 88.3008 63.3203 88.3008C66.9297 88.3008 68.7344 86.3906 68.7344 82.5703ZM117.32 50.3672H103.855V96H97.4219V50.3672H83.9922V44.8125H117.32V50.3672ZM155.395 44.8125V81.1992C155.348 86.0508 153.941 89.8477 151.176 92.5898C148.41 95.332 144.555 96.7031 139.609 96.7031C134.547 96.7031 130.68 95.3672 128.008 92.6953C125.336 90 123.977 86.168 123.93 81.1992V44.8125H130.328V80.9531C130.328 84.3984 131.055 86.9766 132.508 88.6875C133.984 90.375 136.352 91.2188 139.609 91.2188C142.891 91.2188 145.258 90.375 146.711 88.6875C148.188 86.9766 148.926 84.3984 148.926 80.9531V44.8125H155.395ZM165.309 96V44.8125H177.508C183.484 44.8125 188.125 46.6875 191.43 50.4375C194.734 54.1641 196.387 59.4141 196.387 66.1875V74.7656C196.387 81.5391 194.711 86.7773 191.359 90.4805C188.008 94.1602 183.145 96 176.77 96H165.309ZM171.742 50.3672V90.4805H176.91C181.434 90.4805 184.738 89.1914 186.824 86.6133C188.91 84.0117 189.977 80.168 190.023 75.082V66.0117C190.023 60.6211 188.98 56.6719 186.895 54.1641C184.832 51.6328 181.703 50.3672 177.508 50.3672H171.742ZM213.156 96H206.723V44.8125H213.156V96ZM257.734 74.9062C257.734 81.8906 256.246 87.2695 253.27 91.043C250.293 94.8164 246.062 96.7031 240.578 96.7031C235.305 96.7031 231.133 94.875 228.062 91.2188C225.016 87.5391 223.434 82.3477 223.316 75.6445V66.0117C223.316 59.168 224.828 53.8125 227.852 49.9453C230.875 46.0547 235.094 44.1094 240.508 44.1094C245.898 44.1094 250.094 45.9727 253.094 49.6992C256.117 53.4023 257.664 58.6992 257.734 65.5898V74.9062ZM251.301 65.9414C251.301 60.5273 250.41 56.5078 248.629 53.8828C246.871 51.2344 244.164 49.9102 240.508 49.9102C236.969 49.9102 234.285 51.2461 232.457 53.918C230.652 56.5898 229.738 60.5273 229.715 65.7305V74.9062C229.715 80.1328 230.617 84.1172 232.422 86.8594C234.25 89.6016 236.969 90.9727 240.578 90.9727C244.188 90.9727 246.859 89.707 248.594 87.1758C250.328 84.6445 251.23 80.7656 251.301 75.5391V65.9414Z" fill="white"/>
<path d="M67.1172 77.8594L66.7597 78.2091L66.7675 78.2168L67.1172 77.8594ZM61.3164 74.5195L61.5055 74.0565L61.4936 74.052L61.3164 74.5195ZM50.2422 67.6992L49.8626 68.0246L49.864 68.0263L50.2422 67.6992ZM51.4375 48.0469L51.7622 48.4271L51.7624 48.4269L51.4375 48.0469ZM71.5117 46.1133L71.2732 46.5527L71.2764 46.5545L71.5117 46.1133ZM77.1719 51.7031L76.7326 51.942L76.7344 51.9452L77.1719 51.7031ZM79.1758 59.9297V60.4297H79.6758V59.9297H79.1758ZM68.875 59.9297H68.375V60.4297H68.875V59.9297ZM67.3281 54.4805L66.9369 54.792L66.9434 54.7998L67.3281 54.4805ZM58.7148 54.1992L59.0764 54.5447L59.0801 54.5407L58.7148 54.1992ZM58.8906 62.3203L58.5334 62.6702L58.5371 62.6739L58.8906 62.3203ZM64.8672 65.8359L64.6711 66.2959L64.684 66.3014L64.6972 66.3062L64.8672 65.8359ZM75.7305 72.4805L75.3508 72.8059L75.3525 72.8078L75.7305 72.4805ZM47.8867 88.8281L47.4583 89.086L47.4601 89.0888L47.8867 88.8281ZM45.6016 79.8633V79.3633H45.1016V79.8633H45.6016ZM55.9727 79.8633H56.4727V79.3633H55.9727V79.8633ZM69.2344 82.5703C69.2344 80.4026 68.6732 78.6821 67.4668 77.502L66.7675 78.2168C67.7174 79.146 68.2344 80.5662 68.2344 82.5703H69.2344ZM67.4746 77.5097C66.3446 76.3546 64.33 75.21 61.5054 74.0566L61.1274 74.9824C63.9278 76.1259 65.7804 77.2079 66.7598 78.209L67.4746 77.5097ZM61.4936 74.052C56.3969 72.1203 52.793 69.8842 50.6204 67.3721L49.864 68.0263C52.1914 70.7173 55.9703 73.0281 61.1392 74.9871L61.4936 74.052ZM50.6218 67.3738C48.452 64.8424 47.3672 61.8651 47.3672 58.418H46.3672C46.3672 62.0959 47.5323 65.306 49.8626 68.0246L50.6218 67.3738ZM47.3672 58.418C47.3672 54.2391 48.8358 50.9258 51.7622 48.4271L51.1128 47.6666C47.9454 50.3711 46.3672 53.9719 46.3672 58.418H47.3672ZM51.7624 48.4269C54.7275 45.8919 58.4967 44.6094 63.1094 44.6094V43.6094C58.3002 43.6094 54.2882 44.9518 51.1126 47.6668L51.7624 48.4269ZM63.1094 44.6094C66.177 44.6094 68.894 45.2612 71.2732 46.5527L71.7503 45.6739C69.2076 44.2935 66.323 43.6094 63.1094 43.6094V44.6094ZM71.2764 46.5545C73.6524 47.8217 75.4676 49.6152 76.7326 51.942L77.6111 51.4643C76.2512 48.9629 74.2929 47.0299 71.747 45.6721L71.2764 46.5545ZM76.7344 51.9452C78.0249 54.2771 78.6758 56.9343 78.6758 59.9297H79.6758C79.6758 56.7844 78.9908 53.9573 77.6094 51.461L76.7344 51.9452ZM79.1758 59.4297H68.875V60.4297H79.1758V59.4297ZM69.375 59.9297C69.375 57.4767 68.8471 55.5274 67.7128 54.1611L66.9434 54.7998C67.8716 55.9179 68.375 57.6015 68.375 59.9297H69.375ZM67.7193 54.169C66.5983 52.7613 64.9758 52.082 62.9336 52.082V53.082C64.7351 53.082 66.0423 53.6684 66.937 54.7919L67.7193 54.169ZM62.9336 52.082C61.0236 52.082 59.4724 52.6566 58.3496 53.8578L59.0801 54.5407C59.9729 53.5856 61.2342 53.082 62.9336 53.082V52.082ZM58.3533 53.8538C57.2367 55.0224 56.7031 56.587 56.7031 58.4883H57.7031C57.7031 56.7802 58.1774 55.4854 59.0763 54.5446L58.3533 53.8538ZM56.7031 58.4883C56.7031 60.0443 57.3311 61.4428 58.5334 62.6702L59.2478 61.9704C58.2002 60.9009 57.7031 59.7447 57.7031 58.4883H56.7031ZM58.5371 62.6739C59.7324 63.8692 61.7982 65.0714 64.6711 66.2959L65.0632 65.376C62.2174 64.163 60.2988 63.0214 59.2442 61.9668L58.5371 62.6739ZM64.6972 66.3062C69.648 68.0959 73.1793 70.2724 75.3508 72.8059L76.1101 72.1551C73.7816 69.4385 70.0708 67.1854 65.0372 65.3657L64.6972 66.3062ZM75.3525 72.8078C77.5343 75.327 78.6406 78.5443 78.6406 82.5H79.6406C79.6406 78.3464 78.4735 74.8839 76.1084 72.1531L75.3525 72.8078ZM78.6406 82.5C78.6406 86.8376 77.2649 90.1709 74.5555 92.5668L75.2179 93.316C78.1804 90.6963 79.6406 87.0686 79.6406 82.5H78.6406ZM74.5555 92.5668C71.8348 94.9728 68.1093 96.2031 63.3203 96.2031V97.2031C68.2813 97.2031 72.2668 95.9257 75.2179 93.316L74.5555 92.5668ZM63.3203 96.2031C60.0864 96.2031 57.1522 95.5386 54.5088 94.2169L54.0615 95.1113C56.8556 96.5083 59.9449 97.2031 63.3203 97.2031V96.2031ZM54.5088 94.2169C51.8716 92.8983 49.8101 91.0166 48.3134 88.5674L47.4601 89.0888C49.0571 91.7021 51.2612 93.7111 54.0615 95.1113L54.5088 94.2169ZM48.3151 88.5703C46.8458 86.129 46.1016 83.233 46.1016 79.8633H45.1016C45.1016 83.3841 45.8807 86.4647 47.4583 89.086L48.3151 88.5703ZM45.6016 80.3633H55.9727V79.3633H45.6016V80.3633ZM55.4727 79.8633C55.4727 82.8613 56.052 85.1522 57.3162 86.6228L58.0745 85.9709C57.0418 84.7696 56.4727 82.7715 56.4727 79.8633H55.4727ZM57.3162 86.6228C58.5976 88.1135 60.6438 88.8008 63.3203 88.8008V87.8008C60.7937 87.8008 59.0899 87.1521 58.0745 85.9709L57.3162 86.6228ZM63.3203 88.8008C65.2096 88.8008 66.7164 88.2995 67.7443 87.2115C68.7671 86.1289 69.2344 84.5507 69.2344 82.5703H68.2344C68.2344 84.4103 67.7993 85.6973 67.0174 86.5248C66.2406 87.347 65.0404 87.8008 63.3203 87.8008V88.8008ZM117.32 50.3672V50.8672H117.82V50.3672H117.32ZM103.855 50.3672V49.8672H103.355V50.3672H103.855ZM103.855 96V96.5H104.355V96H103.855ZM97.4219 96H96.9219V96.5H97.4219V96ZM97.4219 50.3672H97.9219V49.8672H97.4219V50.3672ZM83.9922 50.3672H83.4922V50.8672H83.9922V50.3672ZM83.9922 44.8125V44.3125H83.4922V44.8125H83.9922ZM117.32 44.8125H117.82V44.3125H117.32V44.8125ZM117.32 49.8672H103.855V50.8672H117.32V49.8672ZM103.355 50.3672V96H104.355V50.3672H103.355ZM103.855 95.5H97.4219V96.5H103.855V95.5ZM97.9219 96V50.3672H96.9219V96H97.9219ZM97.4219 49.8672H83.9922V50.8672H97.4219V49.8672ZM84.4922 50.3672V44.8125H83.4922V50.3672H84.4922ZM83.9922 45.3125H117.32V44.3125H83.9922V45.3125ZM116.82 44.8125V50.3672H117.82V44.8125H116.82ZM155.395 44.8125H155.895V44.3125H155.395V44.8125ZM155.395 81.1992L155.895 81.204V81.1992H155.395ZM128.008 92.6953L127.653 93.0473L127.654 93.0489L128.008 92.6953ZM123.93 81.1992H123.43L123.43 81.2039L123.93 81.1992ZM123.93 44.8125V44.3125H123.43V44.8125H123.93ZM130.328 44.8125H130.828V44.3125H130.328V44.8125ZM132.508 88.6875L132.127 89.0112L132.132 89.0168L132.508 88.6875ZM146.711 88.6875L146.332 88.3608L146.332 88.3612L146.711 88.6875ZM148.926 44.8125V44.3125H148.426V44.8125H148.926ZM154.895 44.8125V81.1992H155.895V44.8125H154.895ZM154.895 81.1944C154.849 85.9484 153.474 89.6069 150.824 92.2348L151.528 92.9449C154.409 90.0884 155.847 86.1531 155.895 81.204L154.895 81.1944ZM150.824 92.2348C148.175 94.8608 144.46 96.2031 139.609 96.2031V97.2031C144.649 97.2031 148.645 95.8033 151.528 92.9449L150.824 92.2348ZM139.609 96.2031C134.633 96.2031 130.911 94.8914 128.361 92.3418L127.654 93.0489C130.448 95.8429 134.461 97.2031 139.609 97.2031V96.2031ZM128.363 92.3433C125.808 89.7664 124.476 86.0747 124.43 81.1945L123.43 81.2039C123.477 86.2612 124.863 90.2336 127.653 93.0473L128.363 92.3433ZM124.43 81.1992V44.8125H123.43V81.1992H124.43ZM123.93 45.3125H130.328V44.3125H123.93V45.3125ZM129.828 44.8125V80.9531H130.828V44.8125H129.828ZM129.828 80.9531C129.828 84.4563 130.565 87.1724 132.127 89.0112L132.889 88.3638C131.544 86.7807 130.828 84.3405 130.828 80.9531H129.828ZM132.132 89.0168C133.74 90.8545 136.274 91.7188 139.609 91.7188V90.7188C136.429 90.7188 134.229 89.8955 132.884 88.3582L132.132 89.0168ZM139.609 91.7188C142.966 91.7188 145.504 90.8555 147.09 89.0138L146.332 88.3612C145.012 89.8945 142.815 90.7188 139.609 90.7188V91.7188ZM147.089 89.0142C148.676 87.1753 149.426 84.4579 149.426 80.9531H148.426C148.426 84.339 147.699 86.7779 146.332 88.3608L147.089 89.0142ZM149.426 80.9531V44.8125H148.426V80.9531H149.426ZM148.926 45.3125H155.395V44.3125H148.926V45.3125ZM165.309 96H164.809V96.5H165.309V96ZM165.309 44.8125V44.3125H164.809V44.8125H165.309ZM191.43 50.4375L191.055 50.7681L191.056 50.7692L191.43 50.4375ZM191.359 90.4805L191.729 90.8172L191.73 90.816L191.359 90.4805ZM171.742 50.3672V49.8672H171.242V50.3672H171.742ZM171.742 90.4805H171.242V90.9805H171.742V90.4805ZM186.824 86.6133L187.213 86.9278L187.214 86.9261L186.824 86.6133ZM190.023 75.082L190.523 75.0866V75.082H190.023ZM186.895 54.1641L186.507 54.4799L186.51 54.4838L186.895 54.1641ZM165.809 96V44.8125H164.809V96H165.809ZM165.309 45.3125H177.508V44.3125H165.309V45.3125ZM177.508 45.3125C183.372 45.3125 187.863 47.1469 191.055 50.7681L191.805 50.1069C188.387 46.2281 183.597 44.3125 177.508 44.3125V45.3125ZM191.056 50.7692C194.254 54.3759 195.887 59.492 195.887 66.1875H196.887C196.887 59.3362 195.215 53.9523 191.804 50.1058L191.056 50.7692ZM195.887 66.1875V74.7656H196.887V66.1875H195.887ZM195.887 74.7656C195.887 81.4597 194.231 86.5622 190.989 90.145L191.73 90.816C195.191 86.9924 196.887 81.6184 196.887 74.7656H195.887ZM190.99 90.1438C187.758 93.692 183.046 95.5 176.77 95.5V96.5C183.243 96.5 188.258 94.6283 191.729 90.8172L190.99 90.1438ZM176.77 95.5H165.309V96.5H176.77V95.5ZM171.242 50.3672V90.4805H172.242V50.3672H171.242ZM171.742 90.9805H176.91V89.9805H171.742V90.9805ZM176.91 90.9805C181.526 90.9805 185.001 89.6621 187.213 86.9278L186.436 86.2988C184.476 88.7207 181.341 89.9805 176.91 89.9805V90.9805ZM187.214 86.9261C189.399 84.2016 190.476 80.2288 190.523 75.0866L189.523 75.0774C189.477 80.1072 188.422 83.8219 186.434 86.3005L187.214 86.9261ZM190.523 75.082V66.0117H189.523V75.082H190.523ZM190.523 66.0117C190.523 60.5748 189.475 56.4843 187.279 53.8443L186.51 54.4838C188.486 56.8595 189.523 60.6674 189.523 66.0117H190.523ZM187.282 53.8482C185.099 51.1687 181.807 49.8672 177.508 49.8672V50.8672C181.599 50.8672 184.565 52.0969 186.507 54.4799L187.282 53.8482ZM177.508 49.8672H171.742V50.8672H177.508V49.8672ZM213.156 96V96.5H213.656V96H213.156ZM206.723 96H206.223V96.5H206.723V96ZM206.723 44.8125V44.3125H206.223V44.8125H206.723ZM213.156 44.8125H213.656V44.3125H213.156V44.8125ZM213.156 95.5H206.723V96.5H213.156V95.5ZM207.223 96V44.8125H206.223V96H207.223ZM206.723 45.3125H213.156V44.3125H206.723V45.3125ZM212.656 44.8125V96H213.656V44.8125H212.656ZM228.062 91.2188L227.677 91.5376L227.68 91.5403L228.062 91.2188ZM223.316 75.6445H222.816L222.816 75.6533L223.316 75.6445ZM227.852 49.9453L228.245 50.2533L228.246 50.2521L227.852 49.9453ZM253.094 49.6992L252.704 50.0128L252.706 50.0154L253.094 49.6992ZM257.734 65.5898H258.234L258.234 65.5847L257.734 65.5898ZM248.629 53.8828L248.212 54.1593L248.215 54.1636L248.629 53.8828ZM232.457 53.918L232.044 53.6356L232.043 53.6381L232.457 53.918ZM229.715 65.7305L229.215 65.7282V65.7305H229.715ZM232.422 86.8594L232.004 87.1343L232.006 87.1367L232.422 86.8594ZM251.301 75.5391L251.801 75.5458V75.5391H251.301ZM257.234 74.9062C257.234 81.8276 255.759 87.0803 252.877 90.7333L253.662 91.3526C256.734 87.4588 258.234 81.9537 258.234 74.9062H257.234ZM252.877 90.7333C250.009 94.3686 245.934 96.2031 240.578 96.2031V97.2031C246.191 97.2031 250.577 95.2642 253.662 91.3526L252.877 90.7333ZM240.578 96.2031C235.435 96.2031 231.41 94.4276 228.445 90.8972L227.68 91.5403C230.856 95.3224 235.174 97.2031 240.578 97.2031V96.2031ZM228.448 90.8999C225.497 87.3368 223.932 82.2704 223.816 75.6358L222.816 75.6533C222.935 82.4249 224.534 87.7413 227.677 91.5376L228.448 90.8999ZM223.816 75.6445V66.0117H222.816V75.6445H223.816ZM223.816 66.0117C223.816 59.2364 225.313 54.0037 228.245 50.2533L227.458 49.6374C224.343 53.6213 222.816 59.0996 222.816 66.0117H223.816ZM228.246 50.2521C231.165 46.4966 235.231 44.6094 240.508 44.6094V43.6094C234.957 43.6094 230.585 45.6128 227.457 49.6385L228.246 50.2521ZM240.508 44.6094C245.769 44.6094 249.812 46.42 252.704 50.0128L253.483 49.3857C250.375 45.5253 246.028 43.6094 240.508 43.6094V44.6094ZM252.706 50.0154C255.632 53.5992 257.165 58.7691 257.234 65.5949L258.234 65.5847C258.163 58.6294 256.602 53.2055 253.481 49.383L252.706 50.0154ZM257.234 65.5898V74.9062H258.234V65.5898H257.234ZM251.801 65.9414C251.801 60.4903 250.907 56.35 249.043 53.6021L248.215 54.1636C249.913 56.6656 250.801 60.5644 250.801 65.9414H251.801ZM249.046 53.6063C247.18 50.7955 244.302 49.4102 240.508 49.4102V50.4102C244.026 50.4102 246.562 51.6733 248.212 54.1593L249.046 53.6063ZM240.508 49.4102C236.822 49.4102 233.975 50.8133 232.044 53.6356L232.87 54.2003C234.595 51.6789 237.116 50.4102 240.508 50.4102V49.4102ZM232.043 53.6381C230.158 56.4282 229.238 60.4815 229.215 65.7282L230.215 65.7327C230.238 60.5732 231.147 56.7514 232.871 54.1978L232.043 53.6381ZM229.215 65.7305V74.9062H230.215V65.7305H229.215ZM229.215 74.9062C229.215 80.1776 230.123 84.2753 232.004 87.1343L232.84 86.5845C231.112 83.9591 230.215 80.088 230.215 74.9062H229.215ZM232.006 87.1367C233.937 90.033 236.82 91.4727 240.578 91.4727V90.4727C237.117 90.4727 234.563 89.1702 232.838 86.582L232.006 87.1367ZM240.578 91.4727C244.319 91.4727 247.161 90.1511 249.006 87.4584L248.181 86.8932C246.558 89.2629 244.056 90.4727 240.578 90.4727V91.4727ZM249.006 87.4584C250.823 84.8066 251.73 80.8092 251.801 75.5458L250.801 75.5323C250.731 80.722 249.833 84.4825 248.181 86.8932L249.006 87.4584ZM251.801 75.5391V65.9414H250.801V75.5391H251.801Z" fill="black"/>
<path d="M0 113C0 110.791 1.79086 109 4 109H260C260 111.209 258.209 113 256 113H0Z" fill="white"/>
</svg>
