<svg width="263" height="113" viewBox="0 0 263 113" fill="none" xmlns="http://www.w3.org/2000/svg">
<path d="M35.6875 76.3438C35.6875 82.4479 34.2396 87.1875 31.3438 90.5625C28.4688 93.9375 24.4688 95.625 19.3438 95.625C14.2396 95.625 10.2292 93.9583 7.3125 90.625C4.39583 87.2708 2.91667 82.5833 2.875 76.5625V68.7812C2.875 62.5312 4.32292 57.6562 7.21875 54.1562C10.1146 50.6354 14.1354 48.875 19.2812 48.875C24.3438 48.875 28.3333 50.6042 31.25 54.0625C34.1667 57.5 35.6458 62.3333 35.6875 68.5625V76.3438ZM26.4688 68.7188C26.4688 64.6146 25.8854 61.5625 24.7188 59.5625C23.5521 57.5625 21.7396 56.5625 19.2812 56.5625C16.8438 56.5625 15.0417 57.5312 13.875 59.4688C12.7083 61.3854 12.1042 64.3125 12.0625 68.25V76.3438C12.0625 80.3229 12.6562 83.2604 13.8438 85.1562C15.0312 87.0312 16.8646 87.9688 19.3438 87.9688C21.7396 87.9688 23.5208 87.0521 24.6875 85.2188C25.8542 83.3646 26.4479 80.5 26.4688 76.625V68.7188Z" fill="white"/>
<path d="M31.3438 90.5625L30.9643 90.2369L30.9631 90.2383L31.3438 90.5625ZM7.3125 90.625L6.9352 90.9531L6.93621 90.9543L7.3125 90.625ZM2.875 76.5625H2.37499L2.37501 76.566L2.875 76.5625ZM7.21875 54.1562L7.60399 54.475L7.60491 54.4739L7.21875 54.1562ZM31.25 54.0625L30.8678 54.3849L30.8687 54.386L31.25 54.0625ZM35.6875 68.5625H36.1875L36.1875 68.5592L35.6875 68.5625ZM13.875 59.4688L14.3021 59.7287L14.3033 59.7267L13.875 59.4688ZM12.0625 68.25L11.5625 68.2447V68.25H12.0625ZM13.8438 85.1562L13.42 85.4217L13.4213 85.4238L13.8438 85.1562ZM24.6875 85.2188L25.1093 85.4872L25.1107 85.485L24.6875 85.2188ZM26.4688 76.625L26.9688 76.6277V76.625H26.4688ZM35.1875 76.3438C35.1875 82.373 33.7576 86.9814 30.9643 90.2369L31.7232 90.8881C34.7216 87.3936 36.1875 82.5229 36.1875 76.3438H35.1875ZM30.9631 90.2383C28.1984 93.4838 24.3477 95.125 19.3438 95.125V96.125C24.5898 96.125 28.7391 94.3912 31.7244 90.8867L30.9631 90.2383ZM19.3438 95.125C14.3594 95.125 10.4956 93.5035 7.68879 90.2957L6.93621 90.9543C9.96275 94.4132 14.1197 96.125 19.3438 96.125V95.125ZM7.6898 90.2969C4.87548 87.0604 3.41612 82.503 3.37499 76.559L2.37501 76.566C2.41721 82.6637 3.91619 87.4812 6.9352 90.9531L7.6898 90.2969ZM3.375 76.5625V68.7812H2.375V76.5625H3.375ZM3.375 68.7812C3.375 62.6041 4.80599 57.8567 7.60399 54.475L6.83351 53.8375C3.83985 57.4558 2.375 62.4584 2.375 68.7812H3.375ZM7.60491 54.4739C10.3928 51.0843 14.2632 49.375 19.2812 49.375V48.375C14.0076 48.375 9.83637 50.1866 6.83259 53.8386L7.60491 54.4739ZM19.2812 49.375C24.2161 49.375 28.0581 51.0534 30.8678 54.3849L31.6322 53.7401C28.6085 50.1549 24.4714 48.375 19.2812 48.375V49.375ZM30.8687 54.386C33.685 57.7051 35.1463 62.4095 35.1875 68.5658L36.1875 68.5592C36.1453 62.2572 34.6484 57.2949 31.6313 53.739L30.8687 54.386ZM35.1875 68.5625V76.3438H36.1875V68.5625H35.1875ZM26.9688 68.7188C26.9688 64.5851 26.3844 61.4256 25.1506 59.3106L24.2869 59.8144C25.3864 61.6994 25.9688 64.644 25.9688 68.7188H26.9688ZM25.1506 59.3106C23.8878 57.1457 21.904 56.0625 19.2812 56.0625V57.0625C21.5752 57.0625 23.2164 57.9793 24.2869 59.8144L25.1506 59.3106ZM19.2812 56.0625C16.6849 56.0625 14.712 57.1095 13.4467 59.2108L14.3033 59.7267C15.3714 57.953 17.0026 57.0625 19.2812 57.0625V56.0625ZM13.4479 59.2088C12.2112 61.2405 11.6045 64.2763 11.5625 68.2447L12.5625 68.2553C12.6038 64.3487 13.2055 61.5303 14.3021 59.7287L13.4479 59.2088ZM11.5625 68.25V76.3438H12.5625V68.25H11.5625ZM11.5625 76.3438C11.5625 80.3533 12.1573 83.4057 13.42 85.4217L14.2675 84.8908C13.1552 83.1151 12.5625 80.2925 12.5625 76.3438H11.5625ZM13.4213 85.4238C14.7126 87.4625 16.717 88.4688 19.3438 88.4688V87.4688C17.0121 87.4688 15.3499 86.6 14.2662 84.8887L13.4213 85.4238ZM19.3438 88.4688C21.8897 88.4688 23.8402 87.4815 25.1093 85.4872L24.2657 84.9503C23.2014 86.6227 21.5895 87.4688 19.3438 87.4688V88.4688ZM25.1107 85.485C26.3522 83.5119 26.9477 80.5336 26.9687 76.6277L25.9688 76.6223C25.9481 80.4664 25.3561 83.2172 24.2643 84.9525L25.1107 85.485ZM26.9688 76.625V68.7188H25.9688V76.625H26.9688Z" fill="black"/>
<path d="M26.6562 70V24.5H38.6875C44 24.5 48.2292 26.1875 51.375 29.5625C54.5417 32.9375 56.1562 37.5625 56.2188 43.4375V50.8125C56.2188 56.7917 54.6354 61.4896 51.4688 64.9062C48.3229 68.3021 43.9792 70 38.4375 70H26.6562ZM35.8438 32.1562V62.375H38.5938C41.6562 62.375 43.8125 61.5729 45.0625 59.9688C46.3125 58.3438 46.9688 55.5521 47.0312 51.5938V43.6875C47.0312 39.4375 46.4375 36.4792 45.25 34.8125C44.0625 33.125 42.0417 32.2396 39.1875 32.1562H35.8438Z" fill="white"/>
<path d="M26.6562 70H26.1562V70.5H26.6562V70ZM26.6562 24.5V24H26.1562V24.5H26.6562ZM51.375 29.5625L51.0092 29.9034L51.0104 29.9046L51.375 29.5625ZM56.2188 43.4375H56.7188L56.7187 43.4322L56.2188 43.4375ZM51.4688 64.9062L51.102 64.5664L51.102 64.5665L51.4688 64.9062ZM35.8438 32.1562V31.6562H35.3438V32.1562H35.8438ZM35.8438 62.375H35.3438V62.875H35.8438V62.375ZM45.0625 59.9688L45.4569 60.2761L45.4588 60.2736L45.0625 59.9688ZM47.0312 51.5938L47.5312 51.6016V51.5938H47.0312ZM45.25 34.8125L44.8411 35.1003L44.8428 35.1026L45.25 34.8125ZM39.1875 32.1562L39.2021 31.6565L39.1948 31.6562H39.1875V32.1562ZM27.1562 70V24.5H26.1562V70H27.1562ZM26.6562 25H38.6875V24H26.6562V25ZM38.6875 25C43.8843 25 47.9726 26.6456 51.0092 29.9034L51.7408 29.2216C48.4857 25.7294 44.1157 24 38.6875 24V25ZM51.0104 29.9046C54.07 33.1656 55.6572 37.6581 55.7188 43.4428L56.7187 43.4322C56.6553 37.4669 55.0133 32.7094 51.7396 29.2204L51.0104 29.9046ZM55.7188 43.4375V50.8125H56.7188V43.4375H55.7188ZM55.7188 50.8125C55.7188 56.7026 54.1608 61.2661 51.102 64.5664L51.8355 65.2461C55.11 61.7131 56.7188 56.8807 56.7188 50.8125H55.7188ZM51.102 64.5665C48.0692 67.8402 43.8697 69.5 38.4375 69.5V70.5C44.0886 70.5 48.5766 68.764 51.8355 65.246L51.102 64.5665ZM38.4375 69.5H26.6562V70.5H38.4375V69.5ZM35.3438 32.1562V62.375H36.3438V32.1562H35.3438ZM35.8438 62.875H38.5938V61.875H35.8438V62.875ZM38.5938 62.875C41.7302 62.875 44.0719 62.0535 45.4569 60.2761L44.6681 59.6614C43.5531 61.0923 41.5823 61.875 38.5938 61.875V62.875ZM45.4588 60.2736C46.8121 58.5143 47.4683 55.5824 47.5312 51.6016L46.5313 51.5859C46.4692 55.5218 45.8129 58.1732 44.6662 59.6639L45.4588 60.2736ZM47.5312 51.5938V43.6875H46.5312V51.5938H47.5312ZM47.5312 43.6875C47.5312 39.4249 46.9424 36.3261 45.6572 34.5224L44.8428 35.1026C45.9326 36.6323 46.5312 39.4501 46.5312 43.6875H47.5312ZM45.6589 34.5248C44.349 32.6633 42.1491 31.7425 39.2021 31.6565L39.1729 32.656C41.9343 32.7367 43.776 33.5867 44.8411 35.1002L45.6589 34.5248ZM39.1875 31.6562H35.8438V32.6562H39.1875V31.6562Z" fill="black"/>
<path d="M61.875 83.0625C61.875 81.2083 61.3958 79.8125 60.4375 78.875C59.5 77.9167 57.7812 76.9271 55.2812 75.9062C50.7188 74.1771 47.4375 72.1562 45.4375 69.8438C43.4375 67.5104 42.4375 64.7604 42.4375 61.5938C42.4375 57.7604 43.7917 54.6875 46.5 52.375C49.2292 50.0417 52.6875 48.875 56.875 48.875C59.6667 48.875 62.1562 49.4688 64.3438 50.6562C66.5312 51.8229 68.2083 53.4792 69.375 55.625C70.5625 57.7708 71.1562 60.2083 71.1562 62.9375H62C62 60.8125 61.5417 59.1979 60.625 58.0938C59.7292 56.9688 58.4271 56.4062 56.7188 56.4062C55.1146 56.4062 53.8646 56.8854 52.9688 57.8438C52.0729 58.7812 51.625 60.0521 51.625 61.6562C51.625 62.9062 52.125 64.0417 53.125 65.0625C54.125 66.0625 55.8958 67.1042 58.4375 68.1875C62.875 69.7917 66.0938 71.7604 68.0938 74.0938C70.1146 76.4271 71.125 79.3958 71.125 83C71.125 86.9583 69.8646 90.0521 67.3438 92.2812C64.8229 94.5104 61.3958 95.625 57.0625 95.625C54.125 95.625 51.4479 95.0208 49.0312 93.8125C46.6146 92.6042 44.7188 90.875 43.3438 88.625C41.9896 86.375 41.3125 83.7188 41.3125 80.6562H50.5312C50.5312 83.2812 51.0417 85.1875 52.0625 86.375C53.0833 87.5625 54.75 88.1562 57.0625 88.1562C60.2708 88.1562 61.875 86.4583 61.875 83.0625ZM105.062 54.4375H93.0938V95H87.375V54.4375H75.4375V49.5H105.062V54.4375ZM138.906 49.5V81.8438C138.865 86.1562 137.615 89.5312 135.156 91.9688C132.698 94.4062 129.271 95.625 124.875 95.625C120.375 95.625 116.938 94.4375 114.562 92.0625C112.188 89.6667 110.979 86.2604 110.938 81.8438V49.5H116.625V81.625C116.625 84.6875 117.271 86.9792 118.562 88.5C119.875 90 121.979 90.75 124.875 90.75C127.792 90.75 129.896 90 131.188 88.5C132.5 86.9792 133.156 84.6875 133.156 81.625V49.5H138.906ZM147.719 95V49.5H158.562C163.875 49.5 168 51.1667 170.938 54.5C173.875 57.8125 175.344 62.4792 175.344 68.5V76.125C175.344 82.1458 173.854 86.8021 170.875 90.0938C167.896 93.3646 163.573 95 157.906 95H147.719ZM153.438 54.4375V90.0938H158.031C162.052 90.0938 164.99 88.9479 166.844 86.6562C168.698 84.3438 169.646 80.9271 169.688 76.4062V68.3438C169.688 63.5521 168.76 60.0417 166.906 57.8125C165.073 55.5625 162.292 54.4375 158.562 54.4375H153.438ZM190.25 95H184.531V49.5H190.25V95ZM229.875 76.25C229.875 82.4583 228.552 87.2396 225.906 90.5938C223.26 93.9479 219.5 95.625 214.625 95.625C209.938 95.625 206.229 94 203.5 90.75C200.792 87.4792 199.385 82.8646 199.281 76.9062V68.3438C199.281 62.2604 200.625 57.5 203.312 54.0625C206 50.6042 209.75 48.875 214.562 48.875C219.354 48.875 223.083 50.5312 225.75 53.8438C228.438 57.1354 229.812 61.8438 229.875 67.9688V76.25ZM224.156 68.2812C224.156 63.4688 223.365 59.8958 221.781 57.5625C220.219 55.2083 217.812 54.0312 214.562 54.0312C211.417 54.0312 209.031 55.2188 207.406 57.5938C205.802 59.9688 204.99 63.4688 204.969 68.0938V76.25C204.969 80.8958 205.771 84.4375 207.375 86.875C209 89.3125 211.417 90.5312 214.625 90.5312C217.833 90.5312 220.208 89.4062 221.75 87.1562C223.292 84.9062 224.094 81.4583 224.156 76.8125V68.2812Z" fill="white"/>
<path d="M60.4375 78.875L60.08 79.2247L60.0879 79.2324L60.4375 78.875ZM55.2812 75.9062L55.4703 75.4432L55.4584 75.4387L55.2812 75.9062ZM45.4375 69.8438L45.0579 70.1691L45.0593 70.1708L45.4375 69.8438ZM46.5 52.375L46.8247 52.7552L46.8249 52.755L46.5 52.375ZM64.3438 50.6562L64.1052 51.0957L64.1085 51.0974L64.3438 50.6562ZM69.375 55.625L68.9357 55.8638L68.9375 55.8671L69.375 55.625ZM71.1562 62.9375V63.4375H71.6562V62.9375H71.1562ZM62 62.9375H61.5V63.4375H62V62.9375ZM60.625 58.0938L60.2338 58.4053L60.2403 58.4131L60.625 58.0938ZM52.9688 57.8438L53.3303 58.1892L53.334 58.1852L52.9688 57.8438ZM53.125 65.0625L52.7678 65.4124L52.7714 65.4161L53.125 65.0625ZM58.4375 68.1875L58.2415 68.6475L58.2543 68.653L58.2675 68.6577L58.4375 68.1875ZM68.0938 74.0938L67.7141 74.4191L67.7158 74.4211L68.0938 74.0938ZM43.3438 88.625L42.9153 88.8828L42.9171 88.8857L43.3438 88.625ZM41.3125 80.6562V80.1562H40.8125V80.6562H41.3125ZM50.5312 80.6562H51.0312V80.1562H50.5312V80.6562ZM62.375 83.0625C62.375 81.1265 61.8737 79.5805 60.7871 78.5176L60.0879 79.2324C60.918 80.0445 61.375 81.2901 61.375 83.0625H62.375ZM60.7949 78.5254C59.7821 77.49 57.9823 76.4691 55.4703 75.4434L55.0922 76.3691C57.5802 77.3851 59.2179 78.3433 60.0801 79.2246L60.7949 78.5254ZM55.4584 75.4387C50.932 73.7232 47.7383 71.7397 45.8157 69.5167L45.0593 70.1708C47.1367 72.5728 50.5055 74.631 55.1041 76.3738L55.4584 75.4387ZM45.8171 69.5184C43.8973 67.2786 42.9375 64.645 42.9375 61.5938H41.9375C41.9375 64.8758 42.9777 67.7422 45.0579 70.1691L45.8171 69.5184ZM42.9375 61.5938C42.9375 57.894 44.2369 54.9648 46.8247 52.7552L46.1753 51.9948C43.3464 54.4102 41.9375 57.6268 41.9375 61.5938H42.9375ZM46.8249 52.755C49.4488 50.5117 52.7857 49.375 56.875 49.375V48.375C52.5893 48.375 49.0095 49.5716 46.1751 51.995L46.8249 52.755ZM56.875 49.375C59.5936 49.375 61.9995 49.9526 64.1052 51.0957L64.5823 50.2168C62.313 48.9849 59.7397 48.375 56.875 48.375V49.375ZM64.1085 51.0974C66.211 52.2188 67.8165 53.8053 68.9357 55.8638L69.8143 55.3862C68.6001 53.153 66.8515 51.427 64.579 50.2151L64.1085 51.0974ZM68.9375 55.8671C70.0795 57.9307 70.6562 60.2833 70.6562 62.9375H71.6562C71.6562 60.1334 71.0455 57.6109 69.8125 55.3829L68.9375 55.8671ZM71.1562 62.4375H62V63.4375H71.1562V62.4375ZM62.5 62.9375C62.5 60.7501 62.0294 59.0027 61.0097 57.7744L60.2403 58.4131C61.0539 59.3932 61.5 60.8749 61.5 62.9375H62.5ZM61.0161 57.7823C60.0072 56.5152 58.5474 55.9062 56.7188 55.9062V56.9062C58.3067 56.9062 59.4511 57.4223 60.2339 58.4052L61.0161 57.7823ZM56.7188 55.9062C55.0093 55.9062 53.6144 56.4209 52.6035 57.5023L53.334 58.1852C54.1148 57.3499 55.2199 56.9062 56.7188 56.9062V55.9062ZM52.6073 57.4983C51.6026 58.5497 51.125 59.9555 51.125 61.6562H52.125C52.125 60.1486 52.5433 59.0128 53.3302 58.1892L52.6073 57.4983ZM51.125 61.6562C51.125 63.0561 51.6905 64.3126 52.7678 65.4124L53.4822 64.7126C52.5595 63.7707 52.125 62.7564 52.125 61.6562H51.125ZM52.7714 65.4161C53.8418 66.4864 55.6862 67.5583 58.2415 68.6475L58.6335 67.7275C56.1054 66.65 54.4082 65.6386 53.4786 64.7089L52.7714 65.4161ZM58.2675 68.6577C62.6636 70.2469 65.7926 72.1774 67.7141 74.4191L68.4734 73.7684C66.3949 71.3434 63.0864 69.3364 58.6075 67.7173L58.2675 68.6577ZM67.7158 74.4211C69.645 76.6486 70.625 79.4948 70.625 83H71.625C71.625 79.2969 70.5842 76.2055 68.4717 73.7664L67.7158 74.4211ZM70.625 83C70.625 86.8428 69.4069 89.7894 67.0125 91.9067L67.675 92.6558C70.3223 90.3148 71.625 87.0738 71.625 83H70.625ZM67.0125 91.9067C64.6069 94.034 61.3099 95.125 57.0625 95.125V96.125C61.4818 96.125 65.0389 94.9869 67.675 92.6558L67.0125 91.9067ZM57.0625 95.125C54.1957 95.125 51.5962 94.5359 49.2549 93.3653L48.8076 94.2597C51.2997 95.5057 54.0543 96.125 57.0625 96.125V95.125ZM49.2549 93.3653C46.9198 92.1978 45.0953 90.5323 43.7704 88.3643L42.9171 88.8857C44.3422 91.2177 46.3093 93.0106 48.8076 94.2597L49.2549 93.3653ZM43.7721 88.3672C42.4721 86.2072 41.8125 83.6432 41.8125 80.6562H40.8125C40.8125 83.7943 41.507 86.5428 42.9154 88.8828L43.7721 88.3672ZM41.3125 81.1562H50.5312V80.1562H41.3125V81.1562ZM50.0312 80.6562C50.0312 83.3262 50.5468 85.3788 51.6833 86.7009L52.4417 86.0491C51.5366 84.9962 51.0312 83.2363 51.0312 80.6562H50.0312ZM51.6833 86.7009C52.8372 88.0432 54.6751 88.6562 57.0625 88.6562V87.6562C54.8249 87.6562 53.3295 87.0818 52.4417 86.0491L51.6833 86.7009ZM57.0625 88.6562C58.7512 88.6562 60.1077 88.208 61.0353 87.2262C61.9579 86.2497 62.375 84.8306 62.375 83.0625H61.375C61.375 84.6902 60.99 85.818 60.3084 86.5394C59.6319 87.2555 58.5821 87.6562 57.0625 87.6562V88.6562ZM105.062 54.4375V54.9375H105.562V54.4375H105.062ZM93.0938 54.4375V53.9375H92.5938V54.4375H93.0938ZM93.0938 95V95.5H93.5938V95H93.0938ZM87.375 95H86.875V95.5H87.375V95ZM87.375 54.4375H87.875V53.9375H87.375V54.4375ZM75.4375 54.4375H74.9375V54.9375H75.4375V54.4375ZM75.4375 49.5V49H74.9375V49.5H75.4375ZM105.062 49.5H105.562V49H105.062V49.5ZM105.062 53.9375H93.0938V54.9375H105.062V53.9375ZM92.5938 54.4375V95H93.5938V54.4375H92.5938ZM93.0938 94.5H87.375V95.5H93.0938V94.5ZM87.875 95V54.4375H86.875V95H87.875ZM87.375 53.9375H75.4375V54.9375H87.375V53.9375ZM75.9375 54.4375V49.5H74.9375V54.4375H75.9375ZM75.4375 50H105.062V49H75.4375V50ZM104.562 49.5V54.4375H105.562V49.5H104.562ZM138.906 49.5H139.406V49H138.906V49.5ZM138.906 81.8438L139.406 81.8486V81.8438H138.906ZM114.562 92.0625L114.207 92.4145L114.209 92.4161L114.562 92.0625ZM110.938 81.8438L110.437 81.8438L110.438 81.8485L110.938 81.8438ZM110.938 49.5V49H110.438V49.5H110.938ZM116.625 49.5H117.125V49H116.625V49.5ZM118.562 88.5L118.181 88.8237L118.186 88.8293L118.562 88.5ZM131.188 88.5L130.809 88.1733L130.809 88.1737L131.188 88.5ZM133.156 49.5V49H132.656V49.5H133.156ZM138.406 49.5V81.8438H139.406V49.5H138.406ZM138.406 81.8389C138.366 86.0539 137.147 89.2905 134.804 91.6137L135.508 92.3238C138.082 89.772 139.364 86.2586 139.406 81.8486L138.406 81.8389ZM134.804 91.6137C132.463 93.935 129.176 95.125 124.875 95.125V96.125C129.365 96.125 132.933 94.8775 135.508 92.3238L134.804 91.6137ZM124.875 95.125C120.461 95.125 117.169 93.9618 114.916 91.7089L114.209 92.4161C116.706 94.9132 120.289 96.125 124.875 96.125V95.125ZM114.918 91.7105C112.66 89.433 111.478 86.1672 111.437 81.839L110.438 81.8485C110.48 86.3537 111.715 89.9003 114.207 92.4145L114.918 91.7105ZM111.438 81.8438V49.5H110.438V81.8438H111.438ZM110.938 50H116.625V49H110.938V50ZM116.125 49.5V81.625H117.125V49.5H116.125ZM116.125 81.625C116.125 84.7454 116.781 87.175 118.181 88.8237L118.944 88.1763C117.76 86.7833 117.125 84.6296 117.125 81.625H116.125ZM118.186 88.8293C119.63 90.4795 121.902 91.25 124.875 91.25V90.25C122.057 90.25 120.12 89.5205 118.939 88.1707L118.186 88.8293ZM124.875 91.25C127.867 91.25 130.142 90.4805 131.566 88.8263L130.809 88.1737C129.65 89.5195 127.716 90.25 124.875 90.25V91.25ZM131.566 88.8267C132.989 87.1779 133.656 84.747 133.656 81.625H132.656C132.656 84.628 132.011 86.7805 130.809 88.1733L131.566 88.8267ZM133.656 81.625V49.5H132.656V81.625H133.656ZM133.156 50H138.906V49H133.156V50ZM147.719 95H147.219V95.5H147.719V95ZM147.719 49.5V49H147.219V49.5H147.719ZM170.938 54.5L170.562 54.8306L170.563 54.8317L170.938 54.5ZM170.875 90.0938L171.245 90.4304L171.246 90.4293L170.875 90.0938ZM153.438 54.4375V53.9375H152.938V54.4375H153.438ZM153.438 90.0938H152.938V90.5938H153.438V90.0938ZM166.844 86.6562L167.232 86.9708L167.234 86.969L166.844 86.6562ZM169.688 76.4062L170.188 76.4109V76.4062H169.688ZM166.906 57.8125L166.519 58.1284L166.522 58.1322L166.906 57.8125ZM148.219 95V49.5H147.219V95H148.219ZM147.719 50H158.562V49H147.719V50ZM158.562 50C163.762 50 167.738 51.626 170.562 54.8306L171.313 54.1694C168.262 50.7073 163.988 49 158.562 49V50ZM170.563 54.8317C173.395 58.0243 174.844 62.5571 174.844 68.5H175.844C175.844 62.4013 174.355 57.6007 171.312 54.1683L170.563 54.8317ZM174.844 68.5V76.125H175.844V68.5H174.844ZM174.844 76.125C174.844 82.0665 173.374 86.587 170.504 89.7582L171.246 90.4293C174.334 87.0172 175.844 82.2252 175.844 76.125H174.844ZM170.505 89.7571C167.646 92.8964 163.474 94.5 157.906 94.5V95.5C163.672 95.5 168.146 93.8328 171.245 90.4304L170.505 89.7571ZM157.906 94.5H147.719V95.5H157.906V94.5ZM152.938 54.4375V90.0938H153.938V54.4375H152.938ZM153.438 90.5938H158.031V89.5938H153.438V90.5938ZM158.031 90.5938C162.145 90.5938 165.252 89.4186 167.232 86.9707L166.455 86.3418C164.727 88.4772 161.959 89.5938 158.031 89.5938V90.5938ZM167.234 86.969C169.187 84.5336 170.145 80.9879 170.187 76.4109L169.188 76.4016C169.146 80.8663 168.209 84.1539 166.454 86.3435L167.234 86.969ZM170.188 76.4062V68.3438H169.188V76.4062H170.188ZM170.188 68.3438C170.188 63.5058 169.255 59.8541 167.291 57.4928L166.522 58.1322C168.266 60.2292 169.188 63.5984 169.188 68.3438H170.188ZM167.294 57.4967C165.34 55.0984 162.396 53.9375 158.562 53.9375V54.9375C162.188 54.9375 164.806 56.0266 166.519 58.1283L167.294 57.4967ZM158.562 53.9375H153.438V54.9375H158.562V53.9375ZM190.25 95V95.5H190.75V95H190.25ZM184.531 95H184.031V95.5H184.531V95ZM184.531 49.5V49H184.031V49.5H184.531ZM190.25 49.5H190.75V49H190.25V49.5ZM190.25 94.5H184.531V95.5H190.25V94.5ZM185.031 95V49.5H184.031V95H185.031ZM184.531 50H190.25V49H184.531V50ZM189.75 49.5V95H190.75V49.5H189.75ZM225.906 90.5938L225.514 90.2841L225.906 90.5938ZM203.5 90.75L203.115 91.0689L203.117 91.0715L203.5 90.75ZM199.281 76.9062H198.781L198.781 76.915L199.281 76.9062ZM203.312 54.0625L203.706 54.3705L203.707 54.3693L203.312 54.0625ZM225.75 53.8438L225.361 54.1573L225.363 54.16L225.75 53.8438ZM229.875 67.9688H230.375L230.375 67.9636L229.875 67.9688ZM221.781 57.5625L221.365 57.839L221.368 57.8433L221.781 57.5625ZM207.406 57.5938L206.994 57.3114L206.992 57.3139L207.406 57.5938ZM204.969 68.0938L204.469 68.0915V68.0938H204.969ZM207.375 86.875L206.957 87.1499L206.959 87.1524L207.375 86.875ZM224.156 76.8125L224.656 76.8192V76.8125H224.156ZM229.375 76.25C229.375 82.3953 228.065 87.0503 225.514 90.2841L226.299 90.9034C229.04 87.4289 230.375 82.5214 230.375 76.25H229.375ZM225.514 90.2841C222.977 93.5001 219.371 95.125 214.625 95.125V96.125C219.629 96.125 223.544 94.3957 226.299 90.9034L225.514 90.2841ZM214.625 95.125C210.068 95.125 206.506 93.5526 203.883 90.4285L203.117 91.0715C205.952 94.4474 209.807 96.125 214.625 96.125V95.125ZM203.885 90.4311C201.273 87.2769 199.884 82.7874 199.781 76.8975L198.781 76.915C198.887 82.9418 200.31 87.6814 203.115 91.0689L203.885 90.4311ZM199.781 76.9062V68.3438H198.781V76.9062H199.781ZM199.781 68.3438C199.781 62.3288 201.11 57.6912 203.706 54.3705L202.919 53.7545C200.14 57.3088 198.781 62.192 198.781 68.3438H199.781ZM203.707 54.3693C206.29 51.046 209.887 49.375 214.562 49.375V48.375C209.613 48.375 205.71 50.1623 202.918 53.7557L203.707 54.3693ZM214.562 49.375C219.225 49.375 222.802 50.9786 225.361 54.1573L226.139 53.5302C223.365 50.0839 219.484 48.375 214.562 48.375V49.375ZM225.363 54.16C227.953 57.3322 229.313 61.9136 229.375 67.9739L230.375 67.9636C230.312 61.7739 228.922 56.9386 226.137 53.5275L225.363 54.16ZM229.375 67.9688V76.25H230.375V67.9688H229.375ZM224.656 68.2812C224.656 63.4317 223.862 59.7381 222.195 57.2817L221.368 57.8433C222.867 60.0536 223.656 63.5058 223.656 68.2812H224.656ZM222.198 57.286C220.528 54.7695 217.951 53.5312 214.562 53.5312V54.5312C217.674 54.5312 219.91 55.6472 221.365 57.839L222.198 57.286ZM214.562 53.5312C211.27 53.5312 208.722 54.7859 206.994 57.3114L207.819 57.8761C209.341 55.6516 211.564 54.5312 214.562 54.5312V53.5312ZM206.992 57.3139C205.308 59.8072 204.49 63.4229 204.469 68.0915L205.469 68.096C205.489 63.5146 206.296 60.1303 207.821 57.8736L206.992 57.3139ZM204.469 68.0938V76.25H205.469V68.0938H204.469ZM204.469 76.25C204.469 80.9406 205.276 84.5956 206.957 87.1499L207.793 86.6001C206.265 84.2794 205.469 80.8511 205.469 76.25H204.469ZM206.959 87.1524C208.687 89.7439 211.268 91.0312 214.625 91.0312V90.0312C211.565 90.0312 209.313 88.8811 207.791 86.5976L206.959 87.1524ZM214.625 91.0312C217.965 91.0312 220.51 89.8504 222.162 87.4389L221.338 86.8736C219.907 88.9621 217.702 90.0312 214.625 90.0312V91.0312ZM222.162 87.4389C223.787 85.0683 224.593 81.5019 224.656 76.8192L223.656 76.8058C223.594 81.4148 222.797 84.7442 221.338 86.8736L222.162 87.4389ZM224.656 76.8125V68.2812H223.656V76.8125H224.656Z" fill="black"/>
<path d="M1 113C1 110.791 2.79086 109 5 109H234V109C234 111.209 232.209 113 230 113H1V113Z" fill="white"/>
</svg>
