<svg width="176" height="83" viewBox="0 0 176 83" fill="none" xmlns="http://www.w3.org/2000/svg">
<path d="M26.7656 50.0078C26.7656 54.5859 25.6797 58.1406 23.5078 60.6719C21.3516 63.2031 18.3516 64.4688 14.5078 64.4688C10.6797 64.4688 7.67188 63.2188 5.48438 60.7188C3.29688 58.2031 2.1875 54.6875 2.15625 50.1719V44.3359C2.15625 39.6484 3.24219 35.9922 5.41406 33.3672C7.58594 30.7266 10.6016 29.4062 14.4609 29.4062C18.2578 29.4062 21.25 30.7031 23.4375 33.2969C25.625 35.875 26.7344 39.5 26.7656 44.1719V50.0078ZM19.8516 44.2891C19.8516 41.2109 19.4141 38.9219 18.5391 37.4219C17.6641 35.9219 16.3047 35.1719 14.4609 35.1719C12.6328 35.1719 11.2812 35.8984 10.4062 37.3516C9.53125 38.7891 9.07812 40.9844 9.04688 43.9375V50.0078C9.04688 52.9922 9.49219 55.1953 10.3828 56.6172C11.2734 58.0234 12.6484 58.7266 14.5078 58.7266C16.3047 58.7266 17.6406 58.0391 18.5156 56.6641C19.3906 55.2734 19.8359 53.125 19.8516 50.2188V44.2891Z" fill="white"/>
<path d="M23.5078 60.6719L23.1283 60.3463L23.1272 60.3476L23.5078 60.6719ZM5.48438 60.7188L5.10707 61.0468L5.10809 61.048L5.48438 60.7188ZM2.15625 50.1719H1.65624L1.65626 50.1753L2.15625 50.1719ZM5.41406 33.3672L5.7993 33.6859L5.80023 33.6848L5.41406 33.3672ZM23.4375 33.2969L23.0553 33.6192L23.0562 33.6204L23.4375 33.2969ZM26.7656 44.1719L27.2656 44.1719L27.2656 44.1685L26.7656 44.1719ZM10.4062 37.3516L10.8334 37.6115L10.8346 37.6095L10.4062 37.3516ZM9.04688 43.9375L8.54688 43.9322V43.9375H9.04688ZM10.3828 56.6172L9.95907 56.8826L9.9604 56.8847L10.3828 56.6172ZM18.5156 56.6641L18.9375 56.9325L18.9388 56.9303L18.5156 56.6641ZM19.8516 50.2188L20.3516 50.2214V50.2188H19.8516ZM26.2656 50.0078C26.2656 54.511 25.1977 57.9345 23.1283 60.3463L23.8873 60.9975C26.1617 58.3467 27.2656 54.6609 27.2656 50.0078H26.2656ZM23.1272 60.3476C21.0813 62.7494 18.2305 63.9688 14.5078 63.9688V64.9688C18.4727 64.9688 21.6219 63.6569 23.8884 60.9961L23.1272 60.3476ZM14.5078 63.9688C10.7995 63.9688 7.93829 62.7639 5.86066 60.3895L5.10809 61.048C7.40546 63.6736 10.5598 64.9688 14.5078 64.9688V63.9688ZM5.86168 60.3907C3.77652 57.9927 2.68696 54.6072 2.65624 50.1684L1.65626 50.1753C1.68804 54.7678 2.81723 58.4135 5.10707 61.0468L5.86168 60.3907ZM2.65625 50.1719V44.3359H1.65625V50.1719H2.65625ZM2.65625 44.3359C2.65625 39.7213 3.72526 36.1927 5.7993 33.6859L5.02883 33.0485C2.75912 35.7917 1.65625 39.5756 1.65625 44.3359H2.65625ZM5.80023 33.6848C7.86415 31.1754 10.7294 29.9062 14.4609 29.9062V28.9062C10.4737 28.9062 7.30772 30.2777 5.0279 33.0496L5.80023 33.6848ZM14.4609 29.9062C18.1302 29.9062 20.9748 31.1524 23.0553 33.6192L23.8197 32.9745C21.5252 30.2539 18.3854 28.9062 14.4609 28.9062V29.9062ZM23.0562 33.6204C25.1433 36.0801 26.2349 39.5761 26.2656 44.1752L27.2656 44.1685C27.2339 39.4239 26.1067 35.6699 23.8188 32.9734L23.0562 33.6204ZM26.2656 44.1719V50.0078H27.2656V44.1719H26.2656ZM20.3516 44.2891C20.3516 41.1815 19.9131 38.785 18.971 37.1699L18.1072 37.6738C18.9151 39.0588 19.3516 41.2404 19.3516 44.2891H20.3516ZM18.971 37.1699C17.9998 35.5051 16.4691 34.6719 14.4609 34.6719V35.6719C16.1403 35.6719 17.3283 36.3387 18.1072 37.6738L18.971 37.1699ZM14.4609 34.6719C12.474 34.6719 10.9516 35.4767 9.97791 37.0936L10.8346 37.6095C11.6109 36.3202 12.7917 35.6719 14.4609 35.6719V34.6719ZM9.97915 37.0916C9.03411 38.6442 8.57848 40.9482 8.5469 43.9322L9.54685 43.9428C9.57777 41.0206 10.0284 38.934 10.8333 37.6115L9.97915 37.0916ZM8.54688 43.9375V50.0078H9.54688V43.9375H8.54688ZM8.54688 50.0078C8.54688 53.0226 8.9932 55.3406 9.95908 56.8826L10.8065 56.3518C9.99118 55.05 9.54688 52.9618 9.54688 50.0078H8.54688ZM9.9604 56.8847C10.9547 58.4547 12.5009 59.2266 14.5078 59.2266V58.2266C12.796 58.2266 11.5921 57.5922 10.8052 56.3497L9.9604 56.8847ZM14.5078 59.2266C16.4548 59.2266 17.96 58.4685 18.9375 56.9325L18.0938 56.3956C17.3212 57.6097 16.1546 58.2266 14.5078 58.2266V59.2266ZM18.9388 56.9303C19.8887 55.4208 20.3358 53.1586 20.3516 50.2214L19.3516 50.2161C19.3361 53.0914 18.8926 55.1261 18.0924 56.3978L18.9388 56.9303ZM20.3516 50.2188V44.2891H19.3516V50.2188H20.3516Z" fill="black"/>
<path d="M19.7422 44V9.875H28.7656C32.75 9.875 35.9219 11.1406 38.2812 13.6719C40.6562 16.2031 41.8672 19.6719 41.9141 24.0781V29.6094C41.9141 34.0938 40.7266 37.6172 38.3516 40.1797C35.9922 42.7266 32.7344 44 28.5781 44H19.7422ZM26.6328 15.6172V38.2812H28.6953C30.9922 38.2812 32.6094 37.6797 33.5469 36.4766C34.4844 35.2578 34.9766 33.1641 35.0234 30.1953V24.2656C35.0234 21.0781 34.5781 18.8594 33.6875 17.6094C32.7969 16.3438 31.2812 15.6797 29.1406 15.6172H26.6328Z" fill="white"/>
<path d="M19.7422 44H19.2422V44.5H19.7422V44ZM19.7422 9.875V9.375H19.2422V9.875H19.7422ZM38.2812 13.6719L37.9155 14.0128L37.9166 14.014L38.2812 13.6719ZM41.9141 24.0781L42.4141 24.0781L42.414 24.0728L41.9141 24.0781ZM38.3516 40.1797L37.9848 39.8398L37.9848 39.8399L38.3516 40.1797ZM26.6328 15.6172V15.1172H26.1328V15.6172H26.6328ZM26.6328 38.2812H26.1328V38.7812H26.6328V38.2812ZM33.5469 36.4766L33.9413 36.7839L33.9432 36.7814L33.5469 36.4766ZM35.0234 30.1953L35.5234 30.2032V30.1953H35.0234ZM33.6875 17.6094L33.2786 17.8971L33.2803 17.8995L33.6875 17.6094ZM29.1406 15.6172L29.1552 15.1174L29.1479 15.1172H29.1406V15.6172ZM20.2422 44V9.875H19.2422V44H20.2422ZM19.7422 10.375H28.7656V9.375H19.7422V10.375ZM28.7656 10.375C32.6343 10.375 35.6653 11.5987 37.9155 14.0128L38.647 13.331C36.1784 10.6825 32.8657 9.375 28.7656 9.375V10.375ZM37.9166 14.014C40.1846 16.4312 41.3682 19.7674 41.4141 24.0834L42.414 24.0728C42.3662 19.5763 41.1279 15.975 38.6459 13.3298L37.9166 14.014ZM41.4141 24.0781V29.6094H42.4141V24.0781H41.4141ZM41.4141 29.6094C41.4141 34.0047 40.252 37.3937 37.9848 39.8398L38.7183 40.5196C41.2012 37.8407 42.4141 34.1828 42.4141 29.6094H41.4141ZM37.9848 39.8399C35.7385 42.2647 32.6249 43.5 28.5781 43.5V44.5C32.8438 44.5 36.2459 43.1885 38.7184 40.5195L37.9848 39.8399ZM28.5781 43.5H19.7422V44.5H28.5781V43.5ZM26.1328 15.6172V38.2812H27.1328V15.6172H26.1328ZM26.6328 38.7812H28.6953V37.7812H26.6328V38.7812ZM28.6953 38.7812C31.0662 38.7812 32.8688 38.1603 33.9413 36.7839L33.1525 36.1692C32.35 37.1991 30.9182 37.7812 28.6953 37.7812V38.7812ZM33.9432 36.7814C34.984 35.4284 35.4761 33.1944 35.5234 30.2032L34.5235 30.1874C34.477 33.1338 33.9848 35.0873 33.1506 36.1717L33.9432 36.7814ZM35.5234 30.1953V24.2656H34.5234V30.1953H35.5234ZM35.5234 24.2656C35.5234 21.0655 35.083 18.7063 34.0947 17.3192L33.2803 17.8995C34.0733 19.0125 34.5234 21.0907 34.5234 24.2656H35.5234ZM34.0964 17.3216C33.0834 15.8821 31.3887 15.1826 29.1552 15.1174L29.126 16.117C31.1738 16.1768 32.5104 16.8054 33.2786 17.8971L34.0964 17.3216ZM29.1406 15.1172H26.6328V16.1172H29.1406V15.1172Z" fill="black"/>
<path d="M46.1562 55.0469C46.1562 53.6562 45.7969 52.6094 45.0781 51.9062C44.375 51.1875 43.0859 50.4453 41.2109 49.6797C37.7891 48.3828 35.3281 46.8672 33.8281 45.1328C32.3281 43.3828 31.5781 41.3203 31.5781 38.9453C31.5781 36.0703 32.5938 33.7656 34.625 32.0312C36.6719 30.2812 39.2656 29.4062 42.4062 29.4062C44.5 29.4062 46.3672 29.8516 48.0078 30.7422C49.6484 31.6172 50.9062 32.8594 51.7812 34.4688C52.6719 36.0781 53.1172 37.9062 53.1172 39.9531H46.25C46.25 38.3594 45.9062 37.1484 45.2188 36.3203C44.5469 35.4766 43.5703 35.0547 42.2891 35.0547C41.0859 35.0547 40.1484 35.4141 39.4766 36.1328C38.8047 36.8359 38.4688 37.7891 38.4688 38.9922C38.4688 39.9297 38.8438 40.7812 39.5938 41.5469C40.3438 42.2969 41.6719 43.0781 43.5781 43.8906C46.9062 45.0938 49.3203 46.5703 50.8203 48.3203C52.3359 50.0703 53.0938 52.2969 53.0938 55C53.0938 57.9688 52.1484 60.2891 50.2578 61.9609C48.3672 63.6328 45.7969 64.4688 42.5469 64.4688C40.3438 64.4688 38.3359 64.0156 36.5234 63.1094C34.7109 62.2031 33.2891 60.9062 32.2578 59.2188C31.2422 57.5312 30.7344 55.5391 30.7344 53.2422H37.6484C37.6484 55.2109 38.0312 56.6406 38.7969 57.5312C39.5625 58.4219 40.8125 58.8672 42.5469 58.8672C44.9531 58.8672 46.1562 57.5938 46.1562 55.0469ZM78.5469 33.5781H69.5703V64H65.2812V33.5781H56.3281V29.875H78.5469V33.5781ZM103.93 29.875V54.1328C103.898 57.3672 102.961 59.8984 101.117 61.7266C99.2734 63.5547 96.7031 64.4688 93.4062 64.4688C90.0312 64.4688 87.4531 63.5781 85.6719 61.7969C83.8906 60 82.9844 57.4453 82.9531 54.1328V29.875H87.2188V53.9688C87.2188 56.2656 87.7031 57.9844 88.6719 59.125C89.6562 60.25 91.2344 60.8125 93.4062 60.8125C95.5938 60.8125 97.1719 60.25 98.1406 59.125C99.125 57.9844 99.6172 56.2656 99.6172 53.9688V29.875H103.93ZM110.539 64V29.875H118.672C122.656 29.875 125.75 31.125 127.953 33.625C130.156 36.1094 131.258 39.6094 131.258 44.125V49.8438C131.258 54.3594 130.141 57.8516 127.906 60.3203C125.672 62.7734 122.43 64 118.18 64H110.539ZM114.828 33.5781V60.3203H118.273C121.289 60.3203 123.492 59.4609 124.883 57.7422C126.273 56.0078 126.984 53.4453 127.016 50.0547V44.0078C127.016 40.4141 126.32 37.7812 124.93 36.1094C123.555 34.4219 121.469 33.5781 118.672 33.5781H114.828ZM142.438 64H138.148V29.875H142.438V64ZM172.156 49.9375C172.156 54.5938 171.164 58.1797 169.18 60.6953C167.195 63.2109 164.375 64.4688 160.719 64.4688C157.203 64.4688 154.422 63.25 152.375 60.8125C150.344 58.3594 149.289 54.8984 149.211 50.4297V44.0078C149.211 39.4453 150.219 35.875 152.234 33.2969C154.25 30.7031 157.062 29.4062 160.672 29.4062C164.266 29.4062 167.062 30.6484 169.062 33.1328C171.078 35.6016 172.109 39.1328 172.156 43.7266V49.9375ZM167.867 43.9609C167.867 40.3516 167.273 37.6719 166.086 35.9219C164.914 34.1562 163.109 33.2734 160.672 33.2734C158.312 33.2734 156.523 34.1641 155.305 35.9453C154.102 37.7266 153.492 40.3516 153.477 43.8203V49.9375C153.477 53.4219 154.078 56.0781 155.281 57.9062C156.5 59.7344 158.312 60.6484 160.719 60.6484C163.125 60.6484 164.906 59.8047 166.062 58.1172C167.219 56.4297 167.82 53.8438 167.867 50.3594V43.9609Z" fill="white"/>
<path d="M45.0781 51.9062L44.7206 52.256L44.7285 52.2637L45.0781 51.9062ZM41.2109 49.6797L41.4 49.2166L41.3881 49.2121L41.2109 49.6797ZM33.8281 45.1328L33.4485 45.4582L33.4499 45.4599L33.8281 45.1328ZM34.625 32.0312L34.9497 32.4115L34.9499 32.4113L34.625 32.0312ZM48.0078 30.7422L47.7693 31.1816L47.7725 31.1834L48.0078 30.7422ZM51.7812 34.4688L51.342 34.7076L51.3438 34.7108L51.7812 34.4688ZM53.1172 39.9531V40.4531H53.6172V39.9531H53.1172ZM46.25 39.9531H45.75V40.4531H46.25V39.9531ZM45.2188 36.3203L44.8275 36.6318L44.834 36.6397L45.2188 36.3203ZM39.4766 36.1328L39.8381 36.4783L39.8418 36.4743L39.4766 36.1328ZM39.5938 41.5469L39.2366 41.8968L39.2402 41.9004L39.5938 41.5469ZM43.5781 43.8906L43.3821 44.3506L43.395 44.3561L43.4081 44.3608L43.5781 43.8906ZM50.8203 48.3203L50.4407 48.6457L50.4424 48.6476L50.8203 48.3203ZM32.2578 59.2188L31.8294 59.4766L31.8312 59.4795L32.2578 59.2188ZM30.7344 53.2422V52.7422H30.2344V53.2422H30.7344ZM37.6484 53.2422H38.1484V52.7422H37.6484V53.2422ZM46.6562 55.0469C46.6562 53.5744 46.2748 52.3774 45.4278 51.5488L44.7285 52.2637C45.319 52.8413 45.6562 53.7381 45.6562 55.0469H46.6562ZM45.4355 51.5566C44.6571 50.7608 43.287 49.9873 41.4 49.2168L41.0219 50.1426C42.8849 50.9033 44.0929 51.6142 44.7207 52.2559L45.4355 51.5566ZM41.3881 49.2121C38.0023 47.9289 35.6289 46.4506 34.2063 44.8057L33.4499 45.4599C35.0273 47.2837 37.5758 48.8367 41.0337 50.1472L41.3881 49.2121ZM34.2078 44.8074C32.788 43.151 32.0781 41.2049 32.0781 38.9453H31.0781C31.0781 41.4357 31.8683 43.6146 33.4485 45.4582L34.2078 44.8074ZM32.0781 38.9453C32.0781 36.2039 33.039 34.0429 34.9497 32.4115L34.3003 31.651C32.1485 33.4883 31.0781 35.9367 31.0781 38.9453H32.0781ZM34.9499 32.4113C36.8915 30.7513 39.3639 29.9062 42.4062 29.9062V28.9062C39.1674 28.9062 36.4522 29.8112 34.3001 31.6512L34.9499 32.4113ZM42.4062 29.9062C44.427 29.9062 46.2104 30.3354 47.7693 31.1816L48.2464 30.3028C46.524 29.3677 44.573 28.9062 42.4062 28.9062V29.9062ZM47.7725 31.1834C49.3282 32.0131 50.5144 33.1855 51.342 34.7076L52.2205 34.2299C51.2981 32.5332 49.9687 31.2213 48.2431 30.301L47.7725 31.1834ZM51.3438 34.7108C52.1889 36.238 52.6172 37.9812 52.6172 39.9531H53.6172C53.6172 37.8313 53.1548 35.9182 52.2187 34.2267L51.3438 34.7108ZM53.1172 39.4531H46.25V40.4531H53.1172V39.4531ZM46.75 39.9531C46.75 38.297 46.394 36.9532 45.6035 36.0009L44.834 36.6397C45.4185 37.3437 45.75 38.4218 45.75 39.9531H46.75ZM45.6099 36.0088C44.8249 35.023 43.6907 34.5547 42.2891 34.5547V35.5547C43.4499 35.5547 44.2688 35.9301 44.8276 36.6318L45.6099 36.0088ZM42.2891 34.5547C40.9807 34.5547 39.8982 34.9495 39.1113 35.7914L39.8418 36.4743C40.3987 35.8786 41.1912 35.5547 42.2891 35.5547V34.5547ZM39.1151 35.7874C38.3343 36.6044 37.9688 37.6925 37.9688 38.9922H38.9688C38.9688 37.8856 39.275 37.0675 39.8381 36.4782L39.1151 35.7874ZM37.9688 38.9922C37.9688 40.0795 38.4092 41.0522 39.2366 41.8968L39.9509 41.197C39.2783 40.5103 38.9688 39.7799 38.9688 38.9922H37.9688ZM39.2402 41.9004C40.0605 42.7208 41.4623 43.5323 43.3821 44.3506L43.7742 43.4307C41.8815 42.6239 40.627 41.873 39.9473 41.1933L39.2402 41.9004ZM43.4081 44.3608C46.6949 45.549 49.0192 46.9873 50.4407 48.6457L51.1999 47.9949C49.6214 46.1533 47.1176 44.6385 43.7481 43.4204L43.4081 44.3608ZM50.4424 48.6476C51.8664 50.2919 52.5938 52.3958 52.5938 55H53.5938C53.5938 52.1979 52.8055 49.8488 51.1983 47.993L50.4424 48.6476ZM52.5938 55C52.5938 57.8532 51.6907 60.0264 49.9266 61.5864L50.589 62.3355C52.6062 60.5518 53.5938 58.0843 53.5938 55H52.5938ZM49.9266 61.5864C48.1512 63.1564 45.7109 63.9688 42.5469 63.9688V64.9688C45.8828 64.9688 48.5832 64.1093 50.589 62.3355L49.9266 61.5864ZM42.5469 63.9688C40.4145 63.9688 38.4842 63.5307 36.747 62.6622L36.2998 63.5566C38.1877 64.5005 40.273 64.9688 42.5469 64.9688V63.9688ZM36.747 62.6622C35.0162 61.7967 33.6656 60.5635 32.6845 58.958L31.8312 59.4795C32.9125 61.249 34.4057 62.6095 36.2998 63.5566L36.747 62.6622ZM32.6862 58.9609C31.7247 57.3634 31.2344 55.4635 31.2344 53.2422H30.2344C30.2344 55.6146 30.7596 57.6991 31.8294 59.4766L32.6862 58.9609ZM30.7344 53.7422H37.6484V52.7422H30.7344V53.7422ZM37.1484 53.2422C37.1484 55.2559 37.5363 56.8319 38.4177 57.8572L39.176 57.2053C38.5262 56.4493 38.1484 55.166 38.1484 53.2422H37.1484ZM38.4177 57.8572C39.3164 58.9026 40.7376 59.3672 42.5469 59.3672V58.3672C40.8874 58.3672 39.8086 57.9412 39.176 57.2053L38.4177 57.8572ZM42.5469 59.3672C43.8346 59.3672 44.8903 59.0251 45.6174 58.2555C46.3394 57.4912 46.6562 56.3905 46.6562 55.0469H45.6562C45.6562 56.2501 45.3715 57.0596 44.8905 57.5687C44.4144 58.0726 43.6654 58.3672 42.5469 58.3672V59.3672ZM78.5469 33.5781V34.0781H79.0469V33.5781H78.5469ZM69.5703 33.5781V33.0781H69.0703V33.5781H69.5703ZM69.5703 64V64.5H70.0703V64H69.5703ZM65.2812 64H64.7812V64.5H65.2812V64ZM65.2812 33.5781H65.7812V33.0781H65.2812V33.5781ZM56.3281 33.5781H55.8281V34.0781H56.3281V33.5781ZM56.3281 29.875V29.375H55.8281V29.875H56.3281ZM78.5469 29.875H79.0469V29.375H78.5469V29.875ZM78.5469 33.0781H69.5703V34.0781H78.5469V33.0781ZM69.0703 33.5781V64H70.0703V33.5781H69.0703ZM69.5703 63.5H65.2812V64.5H69.5703V63.5ZM65.7812 64V33.5781H64.7812V64H65.7812ZM65.2812 33.0781H56.3281V34.0781H65.2812V33.0781ZM56.8281 33.5781V29.875H55.8281V33.5781H56.8281ZM56.3281 30.375H78.5469V29.375H56.3281V30.375ZM78.0469 29.875V33.5781H79.0469V29.875H78.0469ZM103.93 29.875H104.43V29.375H103.93V29.875ZM103.93 54.1328L104.43 54.1376V54.1328H103.93ZM85.6719 61.7969L85.3168 62.1489L85.3183 62.1504L85.6719 61.7969ZM82.9531 54.1328H82.4531L82.4531 54.1375L82.9531 54.1328ZM82.9531 29.875V29.375H82.4531V29.875H82.9531ZM87.2188 29.875H87.7188V29.375H87.2188V29.875ZM88.6719 59.125L88.2907 59.4487L88.2956 59.4543L88.6719 59.125ZM98.1406 59.125L97.7621 58.7983L97.7617 58.7987L98.1406 59.125ZM99.6172 29.875V29.375H99.1172V29.875H99.6172ZM103.43 29.875V54.1328H104.43V29.875H103.43ZM103.43 54.128C103.399 57.2649 102.494 59.6577 100.765 61.3715L101.469 62.0816C103.428 60.1392 104.397 57.4695 104.43 54.1376L103.43 54.128ZM100.765 61.3715C99.0386 63.0834 96.6086 63.9688 93.4062 63.9688V64.9688C96.7977 64.9688 99.5083 64.0259 101.469 62.0816L100.765 61.3715ZM93.4062 63.9688C90.1174 63.9688 87.6845 63.1024 86.0254 61.4433L85.3183 62.1504C87.2218 64.0539 89.9451 64.9688 93.4062 64.9688V63.9688ZM86.027 61.4449C84.3631 59.7664 83.4835 57.3521 83.4531 54.1281L82.4531 54.1375C82.4852 57.5385 83.4182 60.2336 85.3168 62.1489L86.027 61.4449ZM83.4531 54.1328V29.875H82.4531V54.1328H83.4531ZM82.9531 30.375H87.2188V29.375H82.9531V30.375ZM86.7188 29.875V53.9688H87.7188V29.875H86.7188ZM86.7188 53.9688C86.7188 56.3235 87.2135 58.1802 88.2908 59.4487L89.053 58.8013C88.1928 57.7885 87.7188 56.2077 87.7188 53.9688H86.7188ZM88.2956 59.4543C89.4114 60.7295 91.1569 61.3125 93.4062 61.3125V60.3125C91.3118 60.3125 89.9011 59.7705 89.0482 58.7957L88.2956 59.4543ZM93.4062 61.3125C95.6691 61.3125 97.4179 60.7305 98.5195 59.4513L97.7617 58.7987C96.9258 59.7695 95.5184 60.3125 93.4062 60.3125V61.3125ZM98.5192 59.4517C99.614 58.1831 100.117 56.3251 100.117 53.9688H99.1172C99.1172 56.2062 98.636 57.7857 97.7621 58.7983L98.5192 59.4517ZM100.117 53.9688V29.875H99.1172V53.9688H100.117ZM99.6172 30.375H103.93V29.375H99.6172V30.375ZM110.539 64H110.039V64.5H110.539V64ZM110.539 29.875V29.375H110.039V29.875H110.539ZM127.953 33.625L127.578 33.9556L127.579 33.9567L127.953 33.625ZM127.906 60.3203L128.276 60.657L128.277 60.6558L127.906 60.3203ZM114.828 33.5781V33.0781H114.328V33.5781H114.828ZM114.828 60.3203H114.328V60.8203H114.828V60.3203ZM124.883 57.7422L125.272 58.0567L125.273 58.055L124.883 57.7422ZM127.016 50.0547L127.516 50.0593V50.0547H127.016ZM124.93 36.1094L124.542 36.4252L124.545 36.4291L124.93 36.1094ZM111.039 64V29.875H110.039V64H111.039ZM110.539 30.375H118.672V29.375H110.539V30.375ZM118.672 30.375C122.543 30.375 125.488 31.5844 127.578 33.9556L128.328 33.2944C126.012 30.6656 122.769 29.375 118.672 29.375V30.375ZM127.579 33.9567C129.676 36.3212 130.758 39.6873 130.758 44.125H131.758C131.758 39.5315 130.637 35.8976 128.327 33.2933L127.579 33.9567ZM130.758 44.125V49.8438H131.758V44.125H130.758ZM130.758 49.8438C130.758 54.2801 129.661 57.6365 127.536 59.9848L128.277 60.6558C130.62 58.0667 131.758 54.4387 131.758 49.8438H130.758ZM127.537 59.9836C125.422 62.3053 122.331 63.5 118.18 63.5V64.5C122.528 64.5 125.922 63.2416 128.276 60.657L127.537 59.9836ZM118.18 63.5H110.539V64.5H118.18V63.5ZM114.328 33.5781V60.3203H115.328V33.5781H114.328ZM114.828 60.8203H118.273V59.8203H114.828V60.8203ZM118.273 60.8203C121.382 60.8203 123.755 59.9316 125.272 58.0567L124.494 57.4277C123.23 58.9903 121.196 59.8203 118.273 59.8203V60.8203ZM125.273 58.055C126.762 56.1977 127.484 53.5061 127.516 50.0593L126.516 50.0501C126.485 53.3845 125.785 55.818 124.493 57.4294L125.273 58.055ZM127.516 50.0547V44.0078H126.516V50.0547H127.516ZM127.516 44.0078C127.516 40.3678 126.815 37.5937 125.314 35.7896L124.545 36.4291C125.826 37.9688 126.516 40.4604 126.516 44.0078H127.516ZM125.317 35.7935C123.821 33.9578 121.573 33.0781 118.672 33.0781V34.0781C121.365 34.0781 123.288 34.886 124.542 36.4252L125.317 35.7935ZM118.672 33.0781H114.828V34.0781H118.672V33.0781ZM142.438 64V64.5H142.938V64H142.438ZM138.148 64H137.648V64.5H138.148V64ZM138.148 29.875V29.375H137.648V29.875H138.148ZM142.438 29.875H142.938V29.375H142.438V29.875ZM142.438 63.5H138.148V64.5H142.438V63.5ZM138.648 64V29.875H137.648V64H138.648ZM138.148 30.375H142.438V29.375H138.148V30.375ZM141.938 29.875V64H142.938V29.875H141.938ZM152.375 60.8125L151.99 61.1314L151.992 61.134L152.375 60.8125ZM149.211 50.4297H148.711L148.711 50.4384L149.211 50.4297ZM152.234 33.2969L152.628 33.6048L152.629 33.6037L152.234 33.2969ZM169.062 33.1328L168.673 33.4464L168.675 33.449L169.062 33.1328ZM172.156 43.7266L172.656 43.7266L172.656 43.7215L172.156 43.7266ZM166.086 35.9219L165.669 36.1984L165.672 36.2026L166.086 35.9219ZM155.305 35.9453L154.892 35.663L154.89 35.6655L155.305 35.9453ZM153.477 43.8203L152.977 43.8181V43.8203H153.477ZM155.281 57.9062L154.864 58.1811L154.865 58.1836L155.281 57.9062ZM167.867 50.3594L168.367 50.3661V50.3594H167.867ZM171.656 49.9375C171.656 54.5307 170.677 57.9904 168.787 60.3856L169.572 61.005C171.652 58.369 172.656 54.6568 172.656 49.9375H171.656ZM168.787 60.3856C166.912 62.7631 164.246 63.9688 160.719 63.9688V64.9688C164.504 64.9688 167.479 63.6588 169.572 61.005L168.787 60.3856ZM160.719 63.9688C157.333 63.9688 154.699 62.8026 152.758 60.491L151.992 61.134C154.145 63.6974 157.073 64.9688 160.719 64.9688V63.9688ZM152.76 60.4936C150.825 58.1571 149.788 54.8212 149.711 50.4209L148.711 50.4384C148.79 54.9756 149.862 58.5616 151.99 61.1314L152.76 60.4936ZM149.711 50.4297V44.0078H148.711V50.4297H149.711ZM149.711 44.0078C149.711 39.5137 150.704 36.0662 152.628 33.6048L151.84 32.9889C149.734 35.6838 148.711 39.3769 148.711 44.0078H149.711ZM152.629 33.6037C154.54 31.145 157.199 29.9062 160.672 29.9062V28.9062C156.926 28.9062 153.96 30.2613 151.84 32.9901L152.629 33.6037ZM160.672 29.9062C164.136 29.9062 166.781 31.0958 168.673 33.4464L169.452 32.8193C167.344 30.2011 164.395 28.9062 160.672 28.9062V29.9062ZM168.675 33.449C170.593 35.7984 171.61 39.2027 171.656 43.7317L172.656 43.7215C172.609 39.063 171.563 35.4048 169.45 32.8166L168.675 33.449ZM171.656 43.7266V49.9375H172.656V43.7266H171.656ZM168.367 43.9609C168.367 40.3145 167.771 37.5141 166.5 35.6411L165.672 36.2026C166.776 37.8297 167.367 40.3886 167.367 43.9609H168.367ZM166.503 35.6454C165.223 33.7174 163.248 32.7734 160.672 32.7734V33.7734C162.971 33.7734 164.605 34.5951 165.669 36.1984L166.503 35.6454ZM160.672 32.7734C158.166 32.7734 156.214 33.7312 154.892 35.663L155.717 36.2277C156.833 34.5969 158.459 33.7734 160.672 33.7734V32.7734ZM154.89 35.6655C153.607 37.565 152.992 40.3057 152.977 43.8181L153.977 43.8226C153.992 40.3974 154.596 37.8882 155.719 36.2252L154.89 35.6655ZM152.977 43.8203V49.9375H153.977V43.8203H152.977ZM152.977 49.9375C152.977 53.4666 153.584 56.2362 154.864 58.1811L155.699 57.6314C154.573 55.92 153.977 53.3771 153.977 49.9375H152.977ZM154.865 58.1836C156.187 60.1658 158.164 61.1484 160.719 61.1484V60.1484C158.461 60.1484 156.813 59.303 155.697 57.6289L154.865 58.1836ZM160.719 61.1484C163.256 61.1484 165.208 60.2488 166.475 58.3998L165.65 57.8346C164.604 59.3606 162.994 60.1484 160.719 60.1484V61.1484ZM166.475 58.3998C167.714 56.5918 168.32 53.8873 168.367 50.3661L167.367 50.3526C167.321 53.8002 166.724 56.2676 165.65 57.8346L166.475 58.3998ZM168.367 50.3594V43.9609H167.367V50.3594H168.367Z" fill="black"/>
<path d="M0 83C0 80.7909 1.79086 79 4 79H171V79C171 81.2091 169.209 83 167 83H0V83Z" fill="white"/>
</svg>
